<?xml version="1.0" encoding="UTF-8"?><svg id="Layer_2" xmlns="http://www.w3.org/2000/svg" viewBox="0 0 113.81 48.88"><defs><style>.cls-1{fill:#42485a;}.cls-2{fill:#3c485a;}</style></defs><g id="Sphere"><g><g><path class="cls-2" d="M0,21.72V.45H7.62c6.06,0,10.5,3.93,10.5,10.65s-4.47,10.62-10.53,10.62H0Zm7.44-3.84c3.48,0,6.39-2.16,6.39-6.78s-2.88-6.81-6.36-6.81h-3.33v13.59h3.3Z"/><path class="cls-2" d="M28.77,13.53h-2.16v8.19h-4.17V.45h8.31c4.14,0,6.78,2.85,6.78,6.54,0,2.97-1.74,5.22-4.53,6.03l4.56,8.7h-4.62l-4.17-8.19Zm1.2-3.57c2.1,0,3.33-1.2,3.33-2.94s-1.23-2.97-3.33-2.97h-3.36v5.91h3.36Z"/><path class="cls-2" d="M38.96,.45h4.86l4.77,8.43L53.36,.45h4.65l-7.5,12.33v8.94h-4.14V12.78L38.96,.45Z"/><path class="cls-2" d="M61.21,21.72V.45h4.2V21.72h-4.2Z"/><path class="cls-2" d="M84.62,21.72l-9.66-15.09v15.09h-4.14V.45h5.16l8.85,14.07V.45h4.14V21.72h-4.35Z"/><path class="cls-2" d="M110.36,21.72l-.27-2.43c-.96,1.44-3.06,2.88-6.27,2.88-5.73,0-10.62-4.2-10.62-11.07S98.33,0,104.09,0s8.67,3.27,9.72,6.54l-3.96,1.41c-.54-1.89-2.31-4.08-5.76-4.08-3.21,0-6.69,2.19-6.69,7.23s3.15,7.29,6.72,7.29c3.93,0,5.46-2.64,5.7-4.14h-6.72v-3.6h10.62v11.07h-3.36Z"/></g><g><path class="cls-1" d="M43.91,46.07v-.88h-.22c-.89,0-1.19,.02-1.27,.02-.12,0-.13-.01-.13-.12,0-.08,.02-.39,.02-1.13v-1.73c0-.71-.02-1.02-.02-1.1,0-.12,.01-.13,.13-.13,.08,0,.37,.02,1.26,.02h.23v-.86h-.52c-1.01,0-1.34,.02-1.42,.02-.12,0-.13-.01-.13-.13v-.77c0-.12,.01-.13,.13-.13,.07,0,.41,.02,1.42,.02h.52c0-.59-.04-.92-.08-1.32,.46,.01,.82,.04,1.16,.08,.12,.02,.18,.06,.18,.13,0,.06-.02,.12-.06,.2-.05,.1-.07,.25-.07,.68v.22h.46c1.02,0,1.34-.02,1.42-.02,.13,0,.14,.01,.14,.13v.77c0,.12-.01,.13-.14,.13-.07,0-.4-.02-1.42-.02h-.46v.86h.22c.89,0,1.19-.02,1.27-.02,.11,0,.12,.01,.12,.13,0,.05-.01,.18-.01,.4,.72-.88,1.2-1.86,1.48-2.77,.08-.31,.14-.58,.19-.94,.41,.06,.72,.12,1.09,.22,.12,.04,.22,.08,.22,.17s-.04,.14-.1,.21c-.1,.11-.14,.24-.24,.54l-.22,.65h1.66c1.37,0,1.79-.02,1.86-.02,.11,0,.12,.01,.12,.14v.88c0,.12-.01,.13-.12,.13-.07,0-.49-.02-1.86-.02h-2.15c-.2,.41-.44,.8-.73,1.19,.1,.01,.33,.02,.93,.02h2.02c.13,0,.19,0,.25-.02,.08-.04,.12-.05,.18-.05,.12,0,.19,.04,.47,.31,.31,.31,.37,.41,.37,.52,0,.1-.06,.14-.17,.2-.1,.05-.18,.08-.41,.31-.4,.42-.97,1.01-1.55,1.73-.96,1.15-1.27,1.6-1.27,2.02,0,.2,.07,.31,.2,.38,.14,.1,.41,.14,1.12,.14s1.07-.07,1.27-.28c.19-.2,.28-.53,.32-1.46,.25,.13,.49,.24,.78,.31q.36,.1,.33,.47c-.08,.9-.25,1.31-.59,1.62-.36,.34-.92,.49-2.35,.49-1.16,0-1.62-.12-1.9-.3-.25-.18-.53-.54-.53-1.04,0-.82,.34-1.46,1.24-2.55,.64-.78,1.07-1.26,1.49-1.71h-1.28c-.71,0-.91,.02-.97,.02-.12,0-.13-.01-.13-.14v-.74c-.12,.13-.18,.2-.24,.2-.07,0-.14-.07-.29-.19-.17-.14-.35-.26-.5-.36v2.17c0,.73,.01,1.04,.01,1.13,0,.11-.01,.12-.12,.12-.08,0-.38-.02-1.27-.02h-.22v.88h.38c1.01,0,1.34-.02,1.42-.02,.12,0,.13,.01,.13,.13v.77c0,.13-.01,.14-.13,.14-.07,0-.41-.02-1.42-.02h-.38v.02c0,1.08,.02,1.61,.02,1.67,0,.12-.01,.13-.13,.13h-.9c-.13,0-.14-.01-.14-.13,0-.08,.02-.6,.02-1.69h-.62c-1.01,0-1.36,.02-1.42,.02-.12,0-.13-.01-.13-.14v-.77c0-.12,.01-.13,.13-.13,.06,0,.41,.02,1.42,.02h.62Zm-.54-3.39h2.19v-.73h-2.19v.73Zm2.19,.86h-2.19v.74h2.19v-.74Z"/><path class="cls-1" d="M58.78,40.02c0-1-.01-1.51-.08-2.13,.44,.01,.74,.04,1.15,.07,.11,.01,.19,.06,.19,.11,0,.08-.07,.22-.08,.32-.04,.18-.06,.43-.06,1.59v1.07c.17-.24,.34-.47,.48-.7,.1-.14,.19-.35,.28-.55,.2,.17,.46,.47,.64,.7,.07,.08,.1,.14,.1,.22s-.06,.12-.13,.14c-.08,.04-.16,.08-.26,.2-.29,.36-.64,.77-1.12,1.24-.02,.58-.07,1.13-.12,1.64,.41,.91,.88,1.56,1.56,2.16-.24,.23-.41,.44-.54,.68-.1,.14-.14,.2-.2,.2s-.12-.06-.22-.19c-.34-.42-.62-.91-.84-1.34-.28,1.06-.77,2.12-1.43,2.96-.12,.14-.18,.22-.24,.22-.07,0-.13-.07-.23-.22-.18-.28-.38-.5-.62-.66,.7-.75,1.16-1.61,1.44-2.67,.26-1.01,.35-2.48,.35-4.02v-1.04Zm-.6,.38c.16,.04,.17,.04,.17,.17-.04,1.14-.11,2.03-.29,2.88-.02,.12-.05,.13-.18,.06l-.6-.34c-.16-.08-.17-.11-.14-.23,.17-.68,.28-1.58,.26-2.63,0-.13,.02-.16,.18-.11l.6,.19Zm4.37,5.12c-1.16,0-1.56,.02-1.63,.02-.12,0-.13-.01-.13-.13v-.73c0-.13,.01-.14,.13-.14,.07,0,.47,.02,1.63,.02h1.19l-.05-.73c-.13,0-.36-.01-.73-.01h-.94c-.67,0-.88,.02-.95,.02-.13,0-.14-.01-.14-.14,0-.07,.02-.25,.02-.77v-.71c0-.5-.02-.67-.02-.76,0-.12,.01-.13,.14-.13,.07,0,.28,.02,.95,.02h.94c.66,0,.86-.02,.94-.02,.12,0,.13,.01,.13,.13,0,.07-.02,.25-.02,.76v.71c0,.32,0,.52,.01,.62,.22,.01,.42,.04,.64,.06,.01-.11,.02-.3,.02-.68v-.71c0-.5-.02-.67-.02-.76,0-.12,.01-.13,.13-.13,.08,0,.29,.02,.98,.02h.96c.68,0,.9-.02,.97-.02,.13,0,.14,.01,.14,.13,0,.07-.02,.25-.02,.76v.71c0,.52,.02,.7,.02,.77,0,.13-.01,.14-.14,.14-.07,0-.29-.02-.97-.02h-.96c-.38,0-.61,.01-.77,.01-.01,.08-.06,.16-.08,.23-.02,.08-.05,.25-.05,.5h1.46c1.16,0,1.56-.02,1.63-.02,.11,0,.12,.01,.12,.14v.73c0,.12-.01,.13-.12,.13-.07,0-.47-.02-1.63-.02h-.94c.78,.85,1.69,1.42,2.92,1.88-.2,.22-.35,.44-.47,.72-.08,.2-.13,.29-.23,.29-.06,0-.14-.04-.26-.11-1.07-.6-1.87-1.33-2.51-2.18,0,1.09,.05,2.29,.05,2.61,0,.12-.01,.13-.13,.13h-.91c-.12,0-.13-.01-.13-.13,0-.31,.04-1.43,.05-2.51-.76,.92-1.81,1.69-2.82,2.18-.13,.06-.22,.1-.28,.1-.1,0-.13-.08-.23-.28-.12-.24-.28-.47-.47-.66,1.25-.43,2.38-1.1,3.26-2.05h-.68Zm.54-3.33h-1.22v.79h1.22v-.79Zm2.12-3.99c.91,0,1.22-.02,1.31-.02,.12,0,.13,.01,.13,.13,0,.07-.02,.29-.02,.81v.79c0,.52,.02,.73,.02,.8,0,.12-.01,.13-.13,.13-.08,0-.4-.02-1.31-.02h-1.7c-.9,0-1.21,.02-1.29,.02-.12,0-.13-.01-.13-.13,0-.08,.02-.29,.02-.8v-.79c0-.53-.02-.74-.02-.81,0-.12,.01-.13,.13-.13,.08,0,.4,.02,1.29,.02h1.7Zm.29,.88h-2.27v.89h2.27v-.89Zm1.39,3.12h-1.31v.79h1.31v-.79Z"/></g></g></g></svg>