<?xml version="1.0" encoding="UTF-8"?><svg id="Layer_2" xmlns="http://www.w3.org/2000/svg" viewBox="0 0 237.04 79.17"><defs><style>.cls-1{fill:#42485a;}.cls-2{fill:#3c485a;}</style></defs><g id="_イヤー_1"><g><g><path class="cls-2" d="M0,39.7V0H25.09V7.34H7.73v9.8h15.46v7.11H7.78v15.46H0Z"/><path class="cls-2" d="M31.91,39.7V0h24.86V7.28h-17.14v9.07h15.51v6.89h-15.51v9.18h17.14v7.28H31.91Z"/><path class="cls-2" d="M89.02,30.63h-16.13l-3.3,9.07h-8.18L76.64,0h8.96l15.12,39.7h-8.4l-3.3-9.07Zm-13.55-7.06h10.98l-5.49-15.01-5.49,15.01Z"/><path class="cls-2" d="M118.29,7.34V39.7h-7.78V7.34h-12.54V0h32.87V7.34h-12.54Z"/><path class="cls-2" d="M136.33,25.65V0h7.73V25.09c0,5.21,2.91,7.95,7.5,7.95s7.56-2.74,7.56-7.95V0h7.73V25.65c0,9.74-6.78,14.95-15.29,14.95s-15.23-5.21-15.23-14.95Z"/><path class="cls-2" d="M188.15,24.42h-4.03v15.29h-7.78V0h15.51c7.73,0,12.66,5.32,12.66,12.21,0,5.54-3.25,9.74-8.46,11.26l8.51,16.24h-8.62l-7.78-15.29Zm2.24-6.66c3.92,0,6.22-2.24,6.22-5.49s-2.3-5.54-6.22-5.54h-6.27v11.03h6.27Z"/><path class="cls-2" d="M212.18,39.7V0h24.86V7.28h-17.14v9.07h15.51v6.89h-15.51v9.18h17.14v7.28h-24.86Z"/></g><g><path class="cls-1" d="M112.16,74.32c-.46,.96-1.07,1.79-1.84,2.53,.4,.69,.86,1.06,1.38,1.06,.43,0,.59-.35,.67-1.7,.26,.27,.7,.53,.99,.66-.22,1.79-.64,2.3-1.76,2.3-.93,0-1.66-.54-2.26-1.49-.78,.58-1.65,1.07-2.61,1.46-.18-.26-.53-.72-.8-.96,1.09-.4,2.05-.93,2.87-1.6-.34-.8-.59-1.76-.8-2.85h-2.18c-.03,.27-.06,.53-.1,.78,.75,.48,1.6,1.07,2.05,1.5l-.78,1.02c-.34-.34-.93-.82-1.52-1.25-.34,1.34-.96,2.5-2.1,3.33-.19-.3-.56-.78-.88-.98,1.42-.99,1.84-2.66,2-4.42h-1.07v-.8l-.54,.77c-.19-.5-.59-1.36-.98-2.11v7.56h-1.34v-6.74c-.43,1.47-.96,2.87-1.54,3.78-.16-.38-.48-.94-.69-1.25,.87-1.33,1.68-3.7,2.1-5.73h-1.76v-1.36h1.89v-3.38h1.34v3.38h1.58v1.36h-1.58v.69c.4,.58,1.33,2.1,1.65,2.66h4.26c-.34-2.34-.46-5.11-.48-8.07h1.31c-.02,.93,0,1.84,.02,2.72l.51-.7c.11,.08,.21,.16,.32,.24,.34-.66,.69-1.52,.9-2.14l1.15,.43c-.45,.78-.93,1.68-1.31,2.32,.21,.21,.42,.4,.56,.59,.35-.61,.67-1.2,.91-1.71l1.06,.5c-.66,1.09-1.47,2.37-2.21,3.36l1.36-.1c-.11-.27-.22-.54-.35-.78l.86-.35c.42,.75,.82,1.71,.91,2.34l-.91,.42c-.03-.19-.1-.42-.16-.64-.56,.06-1.1,.11-1.62,.18,.53,.3,1.17,.75,1.49,1.09l-.34,.32h1.28v1.18h-3.78c.14,.7,.3,1.34,.5,1.89,.46-.54,.83-1.14,1.12-1.76l1.25,.46Zm-8.39-3.95c.34-.43,.67-.94,1.02-1.49-.4-.5-1.07-1.12-1.65-1.57l.59-.82c.11,.08,.21,.16,.32,.26,.34-.69,.67-1.54,.9-2.16l1.14,.45c-.43,.78-.9,1.68-1.3,2.32,.21,.19,.4,.4,.56,.58,.35-.61,.67-1.2,.91-1.71l1.06,.5c-.69,1.15-1.55,2.51-2.34,3.57l1.23-.08c-.1-.3-.22-.61-.34-.88l.86-.3c.38,.74,.74,1.73,.82,2.34l-.93,.38c-.02-.16-.06-.34-.11-.53-1.1,.13-2.14,.24-3.09,.32l-.21-1.14,.54-.03Zm5.55-.21c.29-.37,.59-.82,.9-1.28-.38-.46-.99-1.06-1.55-1.5,.05,1.92,.19,3.67,.42,5.17h1.81c-.32-.27-.72-.58-1.07-.78l.67-.62-1.44,.16-.22-1.1,.5-.03Z"/><path class="cls-1" d="M124.91,65.55c.82,1.1,1.68,2.59,2,3.6l-1.33,.54c-.08-.26-.21-.56-.35-.9-2.19,.13-4.4,.27-6.03,.37l-.13-1.42c.37-.02,.77-.03,1.22-.05,.51-1.01,1.04-2.3,1.33-3.28l1.55,.35c-.4,.96-.88,1.98-1.33,2.87l2.74-.13c-.29-.51-.59-1.02-.91-1.47l1.25-.48Zm.91,11.99c0,.7-.14,1.09-.61,1.33-.5,.22-1.2,.24-2.18,.24-.08-.38-.29-.96-.5-1.34,.67,.03,1.33,.03,1.55,.02,.21,0,.26-.06,.26-.26v-1.52h-2.95v3.12h-1.39v-9h5.81v7.41Zm-4.42-6.16v1.14h2.95v-1.14h-2.95Zm2.95,3.49v-1.22h-2.95v1.22h2.95Zm4.95-3.38c-1.68,0-2.1-.42-2.1-1.94v-5.06h1.49v2.5c1.23-.43,2.48-.96,3.33-1.41l.96,1.07c-1.23,.56-2.83,1.12-4.29,1.55v1.33c0,.53,.11,.62,.78,.62h2.18c.58,0,.67-.26,.74-1.74,.32,.24,.93,.46,1.34,.54-.16,2-.59,2.53-1.95,2.53h-2.48Zm2.46,6.23c.62,0,.74-.3,.8-2.02,.34,.22,.93,.46,1.33,.56-.18,2.18-.59,2.75-2,2.75h-2.58c-1.68,0-2.11-.43-2.11-1.92v-5.2h1.47v2.37c1.31-.46,2.64-1.04,3.51-1.6l.96,1.09c-1.22,.7-2.93,1.28-4.47,1.74v1.58c0,.54,.13,.64,.83,.64h2.26Z"/></g></g></g></svg>