<?xml version="1.0" encoding="UTF-8"?><svg id="Layer_2" xmlns="http://www.w3.org/2000/svg" viewBox="0 0 128.51 48.39"><defs><style>.cls-1{fill:#42485a;}.cls-2{fill:#3c485a;}</style></defs><g id="Sphere"><g><g><path class="cls-2" d="M0,21.27V0H13.44V3.93H4.14v5.25H12.42v3.81H4.17v8.28H0Z"/><path class="cls-2" d="M17.34,21.27V0h13.32V3.9h-9.18v4.86h8.31v3.69h-8.31v4.92h9.18v3.9h-13.32Z"/><path class="cls-2" d="M48.16,16.41h-8.64l-1.77,4.86h-4.38L41.53,0h4.8l8.1,21.27h-4.5l-1.77-4.86Zm-7.26-3.78h5.88l-2.94-8.04-2.94,8.04Z"/><path class="cls-2" d="M64.18,3.93V21.27h-4.17V3.93h-6.72V0h17.61V3.93h-6.72Z"/><path class="cls-2" d="M74.08,13.74V0h4.14V13.44c0,2.79,1.56,4.26,4.02,4.26s4.05-1.47,4.05-4.26V0h4.14V13.74c0,5.22-3.63,8.01-8.19,8.01s-8.16-2.79-8.16-8.01Z"/><path class="cls-2" d="M102.08,13.08h-2.16v8.19h-4.17V0h8.31c4.14,0,6.78,2.85,6.78,6.54,0,2.97-1.74,5.22-4.53,6.03l4.56,8.7h-4.62l-4.17-8.19Zm1.2-3.57c2.1,0,3.33-1.2,3.33-2.94s-1.23-2.97-3.33-2.97h-3.36v5.91h3.36Z"/><path class="cls-2" d="M115.19,21.27V0h13.32V3.9h-9.18v4.86h8.31v3.69h-8.31v4.92h9.18v3.9h-13.32Z"/></g><g><path class="cls-1" d="M50.43,48.39c-.11,0-.12-.01-.12-.13,0-.18,.05-2.42,.07-5.18-.2,.84-.47,1.57-.84,2.28-.07,.13-.12,.2-.17,.2-.04,0-.07-.06-.12-.19-.12-.36-.28-.68-.42-.88,.65-.98,1.16-2.28,1.45-3.59h-.02c-.73,0-.95,.02-1.02,.02-.11,0-.12-.01-.12-.13v-.86c0-.11,.01-.12,.12-.12,.07,0,.29,.02,1.03,.02h.08v-.84c0-.72-.01-1.13-.1-1.58,.44,.01,.77,.04,1.13,.08,.12,.01,.18,.06,.18,.13,0,.1-.02,.16-.05,.24-.06,.14-.08,.34-.08,1.12v.85c.59,0,.78-.02,.85-.02,.12,0,.13,.01,.13,.12v.86c0,.12-.01,.13-.13,.13-.07,0-.25-.01-.79-.02,.23,.76,.58,1.35,1,1.96-.13,.23-.29,.55-.38,.84-.04,.13-.07,.2-.12,.2-.04,0-.08-.07-.14-.22-.19-.43-.32-.83-.44-1.31,.01,3.17,.08,5.69,.08,5.88,0,.12-.01,.13-.13,.13h-.92Zm6.81-3.66c.07,.3,.17,.58,.26,.83,.2-.19,.4-.4,.55-.6,.14-.19,.24-.35,.34-.56,.28,.12,.67,.32,.86,.47,.1,.08,.12,.12,.12,.18,0,.07-.05,.12-.13,.17-.1,.05-.2,.13-.35,.31-.26,.34-.56,.66-.9,.96,.28,.41,.56,.62,.77,.62,.28,0,.43-.32,.5-1.33,.16,.13,.37,.26,.56,.36q.35,.18,.28,.55c-.19,1.15-.54,1.61-1.18,1.61-.6,0-1.25-.42-1.77-1.15-.65,.46-1.37,.84-2.13,1.12-.14,.05-.23,.08-.29,.08-.1,0-.14-.07-.24-.28-.12-.23-.29-.44-.46-.6,.92-.24,1.83-.67,2.6-1.2-.14-.3-.26-.64-.36-.98-.1-.29-.18-.6-.25-.92h-1.82c-.05,.43-.1,.85-.18,1.21l.37-.5c.07-.1,.12-.12,.24-.06,.36,.19,.77,.46,1.13,.74,.1,.07,.08,.12,.01,.22l-.36,.53c-.05,.08-.08,.12-.13,.12-.02,0-.06-.02-.11-.07-.35-.31-.75-.61-1.17-.84-.24,1.03-.62,1.81-1.15,2.39-.12,.13-.18,.2-.24,.2s-.13-.07-.26-.22c-.19-.22-.42-.4-.62-.5,.82-.68,1.26-1.66,1.36-3.2-.43,0-.61,.01-.66,.01-.12,0-.13-.01-.13-.13v-.79c0-.12,.01-.13,.13-.13,.07,0,.47,.02,1.64,.02h1.76c-.2-1.13-.32-2.34-.38-3.55-.12,.06-.22,.16-.38,.4-.42,.55-.94,1.2-1.32,1.63l.97-.08c-.05-.17-.11-.32-.17-.47-.05-.13-.02-.13,.12-.19l.31-.12c.12-.05,.14-.04,.19,.08,.18,.4,.34,.98,.46,1.49,.04,.13,.01,.14-.12,.2l-.35,.16c-.14,.06-.17,.05-.19-.08l-.06-.32c-.6,.1-1.14,.17-1.7,.23-.19,.02-.32,.06-.38,.1-.06,.04-.11,.06-.16,.06-.07,0-.13-.06-.16-.16-.06-.25-.12-.58-.17-.85,.12,.01,.22,.01,.31,.01,.28-.31,.55-.66,.83-1.01-.32-.44-.74-.92-1.21-1.35-.05-.04-.07-.07-.07-.11s.02-.07,.07-.13l.4-.46c.07-.1,.11-.11,.2-.02l.19,.18c.22-.3,.44-.66,.6-.97,.07-.13,.12-.28,.18-.46,.3,.11,.58,.24,.83,.38,.08,.05,.11,.1,.11,.16s-.05,.1-.11,.13c-.07,.05-.13,.11-.2,.22-.2,.35-.49,.8-.79,1.19,.14,.16,.26,.31,.38,.47l.38-.56c.1-.16,.17-.3,.23-.48,.24,.12,.54,.29,.76,.43v-.22c-.02-.96-.05-1.28-.13-1.85,.44,.01,.71,.04,1.12,.08,.12,.01,.22,.06,.22,.13,0,.1-.04,.16-.07,.24-.06,.16-.06,.4-.05,1.35v.05l.43-.52c.11-.11,.11-.1,.2-.01l.14,.14c.24-.31,.43-.64,.59-.94,.07-.13,.13-.26,.19-.46,.3,.13,.56,.26,.79,.4,.1,.06,.12,.1,.12,.16s-.05,.1-.11,.13c-.07,.05-.12,.1-.19,.22-.2,.32-.48,.73-.8,1.13,.14,.17,.28,.34,.4,.49,.14-.19,.28-.38,.4-.56,.12-.2,.23-.4,.3-.6,.28,.13,.58,.31,.79,.47,.08,.06,.11,.11,.11,.16,0,.07-.04,.11-.13,.14-.11,.05-.18,.17-.37,.4-.42,.55-.91,1.13-1.34,1.61,.32-.02,.67-.06,1.02-.1l-.2-.46c-.05-.12-.04-.13,.12-.19l.4-.16c.14-.06,.16-.04,.22,.08,.22,.43,.42,1,.58,1.5,.04,.11,0,.12-.13,.18l-.43,.18c-.16,.06-.18,.05-.2-.08l-.1-.35-.92,.13c.18,.11,.41,.3,.62,.48,.06,.05,.08,.08,.08,.12s-.04,.07-.08,.11l-.32,.28c.89,0,1.22-.02,1.29-.02,.13,0,.14,.01,.14,.13v.79c0,.12-.01,.13-.14,.13-.07,0-.47-.02-1.63-.02h-1.18l.11,.37Zm-.25-3.09c.23-.26,.48-.56,.73-.89-.35-.49-.76-.95-1.22-1.37,.04,1.34,.19,2.77,.42,3.97h1.38c-.18-.19-.41-.36-.6-.5-.06-.05-.1-.08-.1-.11,0-.04,.04-.07,.12-.13l.28-.2-.32,.04c-.19,.02-.3,.06-.36,.1-.07,.04-.13,.06-.19,.06-.07,0-.12-.06-.14-.16-.07-.24-.12-.54-.16-.82h.17Z"/><path class="cls-1" d="M68.64,38.34c.13-.07,.18-.04,.25,.06,.47,.64,.9,1.43,1.26,2.15,.06,.12,.05,.17-.08,.24l-.68,.37c-.13,.08-.17,.07-.23-.06l-.22-.53c-1.13,.17-2.38,.3-3.59,.41-.23,.02-.38,.06-.48,.11-.06,.02-.11,.05-.18,.05s-.12-.05-.16-.19c-.06-.32-.12-.7-.16-1.04,.31,0,.67,0,.98-.01,.3-.59,.56-1.26,.71-1.67,.1-.28,.16-.48,.22-.82,.48,.06,.79,.12,1.14,.22,.13,.05,.19,.1,.19,.18s-.06,.16-.13,.22c-.06,.05-.13,.16-.22,.35-.19,.42-.46,.98-.7,1.44,.65-.05,1.28-.1,1.88-.17-.16-.26-.31-.52-.48-.77-.07-.11-.05-.14,.08-.2l.58-.32Zm.8,7.05c0,.61,.02,1.26,.02,1.63,0,.41-.02,.73-.26,.95-.19,.17-.42,.25-1.32,.26q-.37,0-.44-.36c-.06-.3-.13-.5-.24-.71,.28,.04,.43,.05,.72,.05s.4-.1,.4-.36v-.9h-1.99v.78c0,.95,.02,1.4,.02,1.48,0,.11-.01,.12-.13,.12h-.91c-.12,0-.13-.01-.13-.12,0-.08,.02-.5,.02-1.48v-3.6c0-.97-.02-1.42-.02-1.5,0-.12,.01-.13,.13-.13,.08,0,.38,.02,1.27,.02h1.5c.89,0,1.19-.02,1.26-.02,.12,0,.13,.01,.13,.13,0,.07-.02,.6-.02,1.61v2.15Zm-3.12-2.89v.8h1.99v-.8h-1.99Zm1.99,2.53v-.8h-1.99v.8h1.99Zm3.29-5.88c.66-.24,1.24-.49,1.76-.77,.28-.14,.49-.32,.66-.49,.3,.26,.53,.52,.73,.77,.08,.08,.11,.14,.11,.2,0,.07-.07,.12-.17,.14-.13,.02-.31,.1-.55,.22-.74,.38-1.62,.72-2.54,1.03v.71c0,.22,.04,.3,.2,.36,.14,.05,.42,.07,.91,.07,.64,0,1.05-.06,1.2-.22,.14-.14,.14-.38,.17-1.04,.24,.14,.55,.26,.84,.35q.29,.08,.28,.41c-.08,.72-.22,1.06-.55,1.28-.34,.24-1.02,.31-2,.31-.85,0-1.5-.05-1.83-.2-.28-.11-.41-.34-.41-.78v-2.84c0-.52-.01-.84-.07-1.18,.38,.01,.8,.04,1.2,.08,.13,.01,.2,.06,.2,.13,0,.08-.04,.13-.07,.2-.05,.11-.06,.2-.06,.66v.59Zm.01,7.44c0,.23,.04,.32,.22,.41,.14,.06,.44,.08,.96,.08,.47,0,1.01-.06,1.16-.22,.18-.19,.18-.47,.2-1.12,.24,.13,.55,.26,.86,.34,.3,.07,.3,.08,.26,.4-.08,.74-.23,1.09-.56,1.33-.31,.22-1.02,.37-1.99,.37-.89,0-1.54-.04-1.89-.22-.26-.13-.42-.4-.42-.88v-3.02c0-.52-.01-.83-.07-1.16,.38,.01,.8,.04,1.2,.08,.13,.02,.2,.06,.2,.14s-.04,.14-.07,.22c-.05,.1-.06,.17-.06,.64v.58c.65-.24,1.32-.56,1.83-.88,.28-.17,.48-.32,.65-.5,.3,.25,.53,.53,.74,.78,.08,.11,.12,.17,.12,.23,0,.07-.08,.13-.19,.14-.13,.01-.3,.1-.54,.22-.83,.4-1.66,.8-2.61,1.14v.9Z"/></g></g></g></svg>