<?xml version="1.0" encoding="UTF-8"?><svg id="Layer_2" xmlns="http://www.w3.org/2000/svg" xmlns:xlink="http://www.w3.org/1999/xlink" viewBox="0 0 202.56 33.76"><defs><style>.cls-1{fill:none;}.cls-2{clip-path:url(#clippath);}.cls-3{fill:#d2121b;}.cls-4{fill:#231916;}</style><clipPath id="clippath"><rect class="cls-1" width="202.56" height="33.76"/></clipPath></defs><g id="_イヤー_1"><g class="cls-2"><path class="cls-4" d="M179.66,19.26h2.43c-.01,1.26,0,2.21-.07,2.65-.21,1.37-1.06,1.87-2.38,1.87s-2.22-.57-2.42-1.87c-.1-.64-.11-2.5-.11-5.02s0-4.38,.11-5.02c.2-1.3,1.07-1.87,2.34-1.87s2.11,.63,2.3,1.88c.05,.27,.07,.97,.09,1.57h3.47c.01-.71-.04-1.65-.12-2.14-.34-2.21-1.74-4.66-5.7-4.66s-5.55,2.39-5.91,4.66c-.17,1.1-.17,3.14-.17,5.58s0,4.48,.17,5.58c.36,2.3,2.07,4.66,5.63,4.66,1.72,0,2.96-.67,3.8-1.94l.49,1.3h1.86v-7.23h0v-3.03h-5.84v3.03Zm-127.79,0h2.43c-.01,1.26,0,2.21-.07,2.65-.21,1.37-1.05,1.87-2.38,1.87s-2.22-.57-2.42-1.87c-.1-.64-.11-2.5-.11-5.02s0-4.38,.11-5.02c.2-1.3,1.07-1.87,2.35-1.87s2.1,.63,2.3,1.88c.04,.27,.07,.97,.09,1.57h3.48c0-.71-.05-1.65-.12-2.14-.34-2.21-1.74-4.66-5.7-4.66s-5.55,2.39-5.91,4.66c-.17,1.1-.17,3.14-.17,5.58s0,4.48,.17,5.58c.36,2.3,2.08,4.66,5.63,4.66,1.72,0,2.96-.67,3.8-1.94l.49,1.3h1.86v-7.23h0v-3.03h-5.84v3.03Zm86.31-.84h5.8v-3.24h-5.8v-4.66h6.57v-3.25h-10.04V26.48h10.25v-3.25h-6.78v-4.81Zm27.01,8.06h3.57V7.27h-3.57V26.48ZM74.44,11.31c-.35-2.28-1.98-4.66-6-4.66s-5.65,2.39-6.01,4.66c-.17,1.1-.17,3.14-.17,5.58s0,4.48,.17,5.58c.36,2.28,1.99,4.66,6.01,4.66s5.65-2.38,6-4.66c.18-1.1,.17-3.13,.17-5.58s0-4.48-.17-5.58m-3.5,10.6c-.21,1.3-1.23,1.87-2.5,1.87s-2.3-.57-2.5-1.87c-.1-.64-.11-2.5-.11-5.02s0-4.38,.11-5.02c.2-1.3,1.23-1.87,2.5-1.87s2.29,.57,2.5,1.87c.1,.64,.1,2.5,.1,5.02s0,4.38-.1,5.02m20.26-10.61c-.36-2.27-1.99-4.66-6.01-4.66s-5.65,2.39-6.01,4.66c-.17,1.1-.17,3.14-.17,5.58s0,4.48,.17,5.59c.36,2.27,1.99,4.66,6.01,4.66s5.65-2.39,6.01-4.66c.17-1.11,.17-3.14,.17-5.59s0-4.48-.17-5.58m-3.51,10.6c-.2,1.3-1.23,1.88-2.5,1.88s-2.3-.57-2.5-1.88c-.1-.64-.11-2.5-.11-5.02s0-4.38,.11-5.02c.2-1.3,1.22-1.87,2.5-1.87s2.3,.58,2.5,1.87c.1,.64,.11,2.5,.11,5.02s0,4.38-.11,5.02m111.51-2.45l-4.77-12.17h-4.07V26.48h3.36V13.3l5.28,13.18h3.56V7.27h-3.35v12.17ZM101.15,7.27h-5.11V26.48h5.11c3.01,0,4.93-1.02,5.82-2.97,.74-1.62,.92-2.83,.92-6.64s-.18-5.02-.92-6.63c-.89-1.95-2.81-2.97-5.82-2.97m2.93,14.14c-.32,.87-.94,1.83-3.09,1.83h-1.48V10.52h1.48c2.15-.01,2.78,.95,3.09,1.81,.32,.89,.33,1.95,.33,4.54s0,3.66-.33,4.54m19.36-14.14h-5.11V26.48h5.11c3.01,0,4.93-1.02,5.82-2.97,.74-1.62,.92-2.83,.92-6.64s-.18-5.02-.92-6.63c-.89-1.95-2.8-2.97-5.82-2.97m2.93,14.14c-.31,.87-.94,1.83-3.09,1.83h-1.48V10.52h1.48c2.15-.01,2.78,.95,3.09,1.81,.32,.89,.33,1.95,.33,4.54s0,3.66-.33,4.54m26.07-9.5c0-1.36,1.04-2.07,2.32-2.07s2.42,.76,2.44,2.63h3.35c-.05-4.26-2.99-5.85-5.79-5.85-2.94,0-5.84,1.81-5.84,5.29,0,5.57,8.32,5.76,8.32,9.65,0,1.45-1.09,2.26-2.56,2.26s-2.73-1.02-2.88-2.98h-3.42c.14,4.41,3.31,6.27,6.3,6.27s6.08-1.57,6.08-5.55c0-5.97-8.32-6.33-8.32-9.65"/><path class="cls-3" d="M0,16.88L16.89,0C7.56,0,0,7.56,0,16.88"/><path class="cls-3" d="M16.89,33.76L0,16.88C0,26.21,7.56,33.76,16.89,33.76"/><path class="cls-3" d="M8.44,16.88l8.44,8.44,8.44-8.44-2.11-2.11-4.22,4.22-4.22-4.22L23.22,6.33l10.55,10.56C33.77,7.56,26.21,0,16.89,0l4.22,4.22-12.66,12.66Z"/><path class="cls-3" d="M16.89,33.76c9.32,0,16.88-7.56,16.88-16.88l-16.88,16.88Z"/></g></g></svg>