<?xml version="1.0" encoding="UTF-8"?><svg id="Layer_2" xmlns="http://www.w3.org/2000/svg" viewBox="0 0 497.1 80.32"><defs><style>.cls-1{fill:#42485a;}.cls-2{fill:#3c485a;}</style></defs><g id="_イヤー_1"><g><g><path class="cls-2" d="M7.73,25.59v14.95H0V.84H14.84c7.84,0,13.05,5.21,13.05,12.38s-5.21,12.38-13.05,12.38H7.73Zm6.16-6.66c3.86,0,6.22-2.24,6.22-5.66s-2.35-5.71-6.22-5.71H7.78v11.37h6.1Z"/><path class="cls-2" d="M33.75,40.54V.84h7.73V33.15h17.7v7.39h-25.42Z"/><path class="cls-2" d="M90.48,31.47h-16.13l-3.3,9.07h-8.18L78.11,.84h8.96l15.12,39.7h-8.4l-3.3-9.07Zm-13.55-7.06h10.98l-5.49-15.01-5.49,15.01Z"/><path class="cls-2" d="M127.12,12.43c-.39-2.18-2.18-5.6-7.22-5.6-3.75,0-6.22,2.41-6.22,5.04,0,2.18,1.4,3.92,4.31,4.48l5.54,1.06c7.22,1.4,11.09,6.1,11.09,11.7,0,6.1-5.1,12.26-14.34,12.26-10.53,0-15.18-6.78-15.79-12.43l7.17-1.9c.34,3.92,3.08,7.45,8.68,7.45,4.14,0,6.44-2.07,6.44-4.87,0-2.3-1.74-4.09-4.82-4.7l-5.54-1.12c-6.33-1.29-10.42-5.38-10.42-11.37,0-7.06,6.33-12.43,13.83-12.43,9.63,0,13.33,5.82,14.22,10.3l-6.94,2.13Z"/><path class="cls-2" d="M178.85,40.54V12.71l-11.42,27.83h-6.44l-11.42-27.61v27.61h-7.39V.84h10.19l11.93,28.67L175.94,.84h10.53V40.54h-7.62Z"/><path class="cls-2" d="M219.61,31.47h-16.13l-3.3,9.07h-8.18L207.23,.84h8.96l15.12,39.7h-8.4l-3.3-9.07Zm-13.55-7.06h10.98l-5.49-15.01-5.49,15.01Z"/><path class="cls-2" d="M250.01,20.72c0-12.66,9.58-20.72,20.22-20.72s16.63,6.72,18.2,13.16l-7.28,2.3c-.95-3.81-4.03-8.01-10.92-8.01-5.94,0-12.21,4.26-12.21,13.27,0,8.46,5.94,13.1,12.32,13.1,6.78,0,10.08-4.42,11.14-8.12l7.22,2.18c-1.51,6.1-7.22,13.5-18.37,13.5s-20.33-8.01-20.33-20.66Z"/><path class="cls-2" d="M295.37,40.54V.84h7.73V33.15h17.7v7.39h-25.42Z"/><path class="cls-2" d="M325.78,26.49V.84h7.73V25.93c0,5.21,2.91,7.95,7.5,7.95s7.56-2.74,7.56-7.95V.84h7.73V26.49c0,9.74-6.78,14.95-15.29,14.95s-15.23-5.21-15.23-14.95Z"/><path class="cls-2" d="M385.48,12.43c-.39-2.18-2.18-5.6-7.22-5.6-3.75,0-6.22,2.41-6.22,5.04,0,2.18,1.4,3.92,4.31,4.48l5.54,1.06c7.22,1.4,11.09,6.1,11.09,11.7,0,6.1-5.1,12.26-14.34,12.26-10.53,0-15.18-6.78-15.79-12.43l7.17-1.9c.34,3.92,3.08,7.45,8.68,7.45,4.14,0,6.44-2.07,6.44-4.87,0-2.3-1.74-4.09-4.82-4.7l-5.54-1.12c-6.33-1.29-10.42-5.38-10.42-11.37,0-7.06,6.33-12.43,13.83-12.43,9.63,0,13.33,5.82,14.22,10.3l-6.94,2.13Z"/><path class="cls-2" d="M417.34,8.18V40.54h-7.78V8.18h-12.54V.84h32.87v7.34h-12.54Z"/><path class="cls-2" d="M435.53,40.54V.84h24.86v7.28h-17.14v9.07h15.51v6.89h-15.51v9.18h17.14v7.28h-24.86Z"/><path class="cls-2" d="M480.69,25.26h-4.03v15.29h-7.78V.84h15.51c7.73,0,12.66,5.32,12.66,12.21,0,5.54-3.25,9.74-8.46,11.26l8.51,16.24h-8.62l-7.78-15.29Zm2.24-6.66c3.92,0,6.22-2.24,6.22-5.49s-2.3-5.54-6.22-5.54h-6.27v11.03h6.27Z"/></g><g><path class="cls-1" d="M148.84,68.3c.19,0,.43,0,.67-.03-.03-.14-.05-.29-.05-.43,0-1.01,.83-1.84,1.84-1.84s1.86,.83,1.86,1.84-.83,1.84-1.86,1.84c-.14,0-.29-.02-.42-.05l-.08,.3c-.35,1.63-1.1,4.16-2.4,5.88-1.46,1.89-3.46,3.43-6.36,4.34l-1.38-1.5c3.14-.77,4.95-2.15,6.26-3.81,1.1-1.41,1.79-3.46,2-4.91h-7.86c-.69,0-1.33,.03-1.73,.05v-1.78c.45,.06,1.2,.11,1.73,.11h7.76Zm3.47-.46c0-.54-.45-.99-1.01-.99s-.99,.45-.99,.99,.45,.99,.99,.99,1.01-.43,1.01-.99Z"/><path class="cls-1" d="M170.26,71.78c-.08,.18-.21,.42-.24,.54-.46,1.57-1.17,3.19-2.35,4.5-1.65,1.83-3.68,2.83-5.73,3.41l-1.25-1.44c2.32-.48,4.29-1.52,5.6-2.88,.91-.94,1.49-2.14,1.78-3.2h-8.15c-.38,0-1.09,.02-1.7,.06v-1.67c.62,.06,1.23,.11,1.7,.11h8.2c.43,0,.82-.06,1.02-.14l1.12,.71Zm-10.58-4.4c.43,.05,1.01,.08,1.52,.08h6.24c.51,0,1.17-.03,1.57-.08v1.65c-.4-.03-1.04-.05-1.58-.05h-6.23c-.5,0-1.07,.02-1.52,.05v-1.65Z"/><path class="cls-1" d="M186.49,69.01c-.11,.14-.35,.56-.46,.82-.56,1.33-1.52,3.14-2.62,4.58,1.65,1.41,3.59,3.47,4.58,4.69l-1.42,1.23c-1.04-1.42-2.66-3.2-4.23-4.66-1.71,1.83-3.86,3.54-6.16,4.59l-1.3-1.36c2.59-.98,4.99-2.91,6.58-4.67,1.09-1.22,2.16-2.98,2.54-4.23h-5.88c-.62,0-1.49,.08-1.74,.1v-1.81c.32,.05,1.25,.11,1.74,.11h5.94c.59,0,1.12-.08,1.39-.18l.62,.48c-.32-.64-.77-1.42-1.15-1.98l1.04-.43c.4,.61,.99,1.6,1.28,2.19l-.91,.4,.16,.13Zm1.38-3.28c.42,.59,1.02,1.6,1.31,2.18l-1.04,.46c-.34-.69-.86-1.6-1.3-2.21l1.02-.43Z"/><path class="cls-1" d="M208,69.33c-.19,.21-.35,.4-.46,.56-1.15,1.89-3.2,4.48-5.65,6.4,.94,.94,1.98,2.06,2.62,2.83l-1.47,1.19c-.64-.87-1.94-2.3-2.96-3.36-.96-.95-2.71-2.48-3.6-3.11l1.31-1.07c.61,.45,1.82,1.42,2.88,2.37,2.11-1.62,3.79-3.76,4.58-5.14h-9c-.64,0-1.39,.06-1.73,.1v-1.79c.43,.06,1.18,.13,1.73,.13h9.25c.51,0,.96-.05,1.23-.14l1.26,1.04Z"/><path class="cls-1" d="M225.2,69.45c-.16,.26-.34,.66-.45,.98-.43,1.54-1.38,3.68-2.82,5.44-1.47,1.81-3.41,3.28-6.4,4.43l-1.49-1.33c3.09-.93,4.99-2.35,6.42-4,1.18-1.36,2.14-3.38,2.43-4.72h-4.99c-1.02,1.38-2.38,2.79-4.07,3.91l-1.41-1.04c2.79-1.66,4.27-3.89,5.03-5.3,.19-.32,.46-.98,.59-1.44l1.86,.61c-.32,.48-.66,1.11-.83,1.43-.06,.13-.14,.27-.22,.4h3.84c.45,0,.9-.05,1.2-.16l1.31,.8Z"/><path class="cls-1" d="M243.52,71.78c-.08,.18-.21,.42-.24,.54-.46,1.57-1.17,3.19-2.35,4.5-1.65,1.83-3.68,2.83-5.73,3.41l-1.25-1.44c2.32-.48,4.29-1.52,5.6-2.88,.91-.94,1.49-2.14,1.78-3.2h-8.15c-.38,0-1.09,.02-1.7,.06v-1.67c.62,.06,1.23,.11,1.7,.11h8.2c.43,0,.82-.06,1.02-.14l1.12,.71Zm-10.58-4.4c.43,.05,1.01,.08,1.52,.08h6.24c.51,0,1.17-.03,1.57-.08v1.65c-.4-.03-1.04-.05-1.58-.05h-6.23c-.5,0-1.07,.02-1.52,.05v-1.65Z"/><path class="cls-1" d="M259.91,68.67c-.11,.16-.35,.56-.46,.83-.56,1.31-1.5,3.12-2.62,4.56,1.65,1.41,3.58,3.47,4.58,4.69l-1.42,1.25c-1.04-1.44-2.64-3.2-4.23-4.67-1.71,1.82-3.86,3.54-6.16,4.59l-1.3-1.34c2.59-.99,4.99-2.91,6.58-4.69,1.09-1.22,2.16-2.98,2.54-4.23h-5.87c-.62,0-1.49,.08-1.75,.1v-1.81c.32,.05,1.25,.11,1.75,.11h5.94c.59,0,1.12-.06,1.39-.16l1.04,.77Z"/><path class="cls-1" d="M279.42,69.2c-.14,.27-.34,.67-.45,.99-.4,1.33-1.18,3.03-2.27,4.59,.59,.38,1.14,.74,1.54,1.02l-1.12,1.47c-.38-.32-.91-.71-1.52-1.12-1.42,1.62-3.38,3.11-6.1,4.15l-1.46-1.28c2.82-.85,4.77-2.3,6.16-3.79-1.18-.77-2.42-1.52-3.28-2l1.06-1.2c.9,.46,2.13,1.17,3.3,1.87,.88-1.27,1.6-2.77,1.89-3.89h-5.09c-1.06,1.46-2.5,2.99-4.21,4.16l-1.38-1.04c2.79-1.71,4.37-4.03,5.12-5.46,.21-.32,.5-.98,.61-1.44l1.82,.58c-.3,.48-.66,1.09-.82,1.41l-.19,.35h3.89c.45,0,.9-.06,1.2-.18l1.3,.8Z"/><path class="cls-1" d="M285.16,72.3c.51,.05,1.5,.1,2.37,.1h8.69c.78,0,1.41-.06,1.79-.1v1.97c-.35-.02-1.07-.06-1.78-.06h-8.71c-.9,0-1.84,.03-2.37,.06v-1.97Z"/><path class="cls-1" d="M312.55,78.15c0,.66,.03,1.54,.11,1.89h-1.98c.05-.35,.1-1.23,.1-1.89v-5.7c-1.68,.9-3.81,1.79-5.79,2.35l-.91-1.55c2.74-.62,5.44-1.81,7.22-2.91,1.62-1.01,3.28-2.43,4.18-3.59l1.36,1.23c-1.15,1.15-2.66,2.4-4.27,3.44v6.72Z"/><path class="cls-1" d="M333.82,69.63c.46,0,1.15-.06,1.49-.11v1.68c-.43-.02-1.01-.03-1.41-.03h-2.34c.05,2.37,.11,5.33,.13,7.4,0,.93-.54,1.44-1.62,1.44-.88,0-1.81-.05-2.66-.1l-.13-1.65c.74,.11,1.63,.18,2.19,.18,.43,0,.59-.21,.59-.64,0-1.2-.02-3.22-.05-5.15-1.38,1.87-4.08,4.29-6.8,5.73l-1.15-1.31c3.19-1.54,5.94-4,7.22-5.89h-4.88c-.56,0-1.1,.02-1.63,.05v-1.7c.45,.06,1.09,.11,1.6,.11h5.59c-.02-.53-.03-.99-.05-1.38-.02-.43-.05-.96-.14-1.47h1.83c-.06,.46-.1,.99-.08,1.47l.02,1.38h2.29Z"/><path class="cls-1" d="M347.51,75.98c2.58-1.58,4.58-3.99,5.55-6.03l.98,1.75c-1.15,2.06-3.12,4.26-5.62,5.79-1.62,.99-3.65,1.94-6.13,2.38l-1.07-1.65c2.67-.4,4.75-1.3,6.29-2.24Zm-.54-5.12l-1.26,1.3c-.83-.85-2.82-2.58-4-3.39l1.17-1.25c1.14,.75,3.2,2.42,4.1,3.34Z"/></g></g></g></svg>