<?xml version="1.0" encoding="UTF-8"?><svg id="Layer_2" xmlns="http://www.w3.org/2000/svg" viewBox="0 0 269.03 48.51"><defs><style>.cls-1{fill:#42485a;}.cls-2{fill:#3c485a;}</style></defs><g id="Sphere"><g><g><path class="cls-2" d="M4.14,13.71v8.01H0V.45H7.95c4.2,0,6.99,2.79,6.99,6.63s-2.79,6.63-6.99,6.63h-3.81Zm3.3-3.57c2.07,0,3.33-1.2,3.33-3.03s-1.26-3.06-3.33-3.06h-3.27v6.09h3.27Z"/><path class="cls-2" d="M18.33,21.72V.45h4.14V17.76h9.48v3.96h-13.62Z"/><path class="cls-2" d="M48.92,16.86h-8.64l-1.77,4.86h-4.38L42.29,.45h4.8l8.1,21.27h-4.5l-1.77-4.86Zm-7.26-3.78h5.88l-2.94-8.04-2.94,8.04Z"/><path class="cls-2" d="M68.8,6.66c-.21-1.17-1.17-3-3.87-3-2.01,0-3.33,1.29-3.33,2.7,0,1.17,.75,2.1,2.31,2.4l2.97,.57c3.87,.75,5.94,3.27,5.94,6.27,0,3.27-2.73,6.57-7.68,6.57-5.64,0-8.13-3.63-8.46-6.66l3.84-1.02c.18,2.1,1.65,3.99,4.65,3.99,2.22,0,3.45-1.11,3.45-2.61,0-1.23-.93-2.19-2.58-2.52l-2.97-.6c-3.39-.69-5.58-2.88-5.58-6.09,0-3.78,3.39-6.66,7.41-6.66,5.16,0,7.14,3.12,7.62,5.52l-3.72,1.14Z"/><path class="cls-2" d="M96.75,21.72V6.81l-6.12,14.91h-3.45l-6.12-14.79v14.79h-3.96V.45h5.46l6.39,15.36L95.19,.45h5.64V21.72h-4.08Z"/><path class="cls-2" d="M118.82,16.86h-8.64l-1.77,4.86h-4.38L112.19,.45h4.8l8.1,21.27h-4.5l-1.77-4.86Zm-7.26-3.78h5.88l-2.94-8.04-2.94,8.04Z"/><path class="cls-2" d="M135.23,11.1c0-6.78,5.13-11.1,10.83-11.1s8.91,3.6,9.75,7.05l-3.9,1.23c-.51-2.04-2.16-4.29-5.85-4.29-3.18,0-6.54,2.28-6.54,7.11,0,4.53,3.18,7.02,6.6,7.02,3.63,0,5.4-2.37,5.97-4.35l3.87,1.17c-.81,3.27-3.87,7.23-9.84,7.23s-10.89-4.29-10.89-11.07Z"/><path class="cls-2" d="M159.76,21.72V.45h4.14V17.76h9.48v3.96h-13.62Z"/><path class="cls-2" d="M176.3,14.19V.45h4.14V13.89c0,2.79,1.56,4.26,4.02,4.26s4.05-1.47,4.05-4.26V.45h4.14V14.19c0,5.22-3.63,8.01-8.19,8.01s-8.16-2.79-8.16-8.01Z"/><path class="cls-2" d="M208.53,6.66c-.21-1.17-1.17-3-3.87-3-2.01,0-3.33,1.29-3.33,2.7,0,1.17,.75,2.1,2.31,2.4l2.97,.57c3.87,.75,5.94,3.27,5.94,6.27,0,3.27-2.73,6.57-7.68,6.57-5.64,0-8.13-3.63-8.46-6.66l3.84-1.02c.18,2.1,1.65,3.99,4.65,3.99,2.22,0,3.45-1.11,3.45-2.61,0-1.23-.93-2.19-2.58-2.52l-2.97-.6c-3.39-.69-5.58-2.88-5.58-6.09,0-3.78,3.39-6.66,7.41-6.66,5.16,0,7.14,3.12,7.62,5.52l-3.72,1.14Z"/><path class="cls-2" d="M225.83,4.38V21.72h-4.17V4.38h-6.72V.45h17.61v3.93h-6.72Z"/><path class="cls-2" d="M235.82,21.72V.45h13.32v3.9h-9.18v4.86h8.31v3.69h-8.31v4.92h9.18v3.9h-13.32Z"/><path class="cls-2" d="M260.24,13.53h-2.16v8.19h-4.17V.45h8.31c4.14,0,6.78,2.85,6.78,6.54,0,2.97-1.74,5.22-4.53,6.03l4.56,8.7h-4.62l-4.17-8.19Zm1.2-3.57c2.1,0,3.33-1.2,3.33-2.94s-1.23-2.97-3.33-2.97h-3.36v5.91h3.36Z"/></g><g><path class="cls-1" d="M52.42,41.08c-.78,0-1.46,.04-1.98,.06-.16,.01-.2-.07-.23-.24-.04-.24-.08-.86-.11-1.21,.54,.06,1.17,.08,2.3,.08h4.28c.36,0,.49-.02,.66-.12,.07-.05,.14-.07,.2-.07,.07,0,.14,.02,.2,.08,.31,.25,.61,.54,.82,.83,.06,.08,.1,.16,.1,.24,0,.07-.04,.14-.12,.23-.11,.11-.17,.23-.28,.47-.59,1.42-1.32,2.73-2.33,3.9-1.03,1.18-2.19,2.17-3.41,2.85-.11,.07-.22,.11-.32,.11-.1,0-.2-.04-.3-.13-.28-.26-.67-.48-1.12-.66,1.75-.89,2.82-1.72,3.92-3,.94-1.07,1.55-2.09,2.03-3.42h-4.33Zm8.29-2.3c0,.72-.58,1.28-1.29,1.28s-1.3-.56-1.3-1.28,.58-1.28,1.3-1.28,1.29,.56,1.29,1.28Zm-2,0c0,.41,.3,.71,.71,.71s.71-.3,.71-.71-.3-.71-.71-.71-.71,.3-.71,.71Z"/><path class="cls-1" d="M67.23,42.64c-.6,0-1.2,.01-1.8,.05-.11,0-.16-.07-.18-.23-.07-.3-.1-.74-.13-1.21,.68,.07,1.42,.1,2.21,.1h4.11c.2,0,.44-.02,.64-.13,.06-.05,.11-.07,.16-.07,.06,0,.12,.04,.18,.08,.29,.23,.61,.53,.8,.74,.08,.08,.12,.17,.12,.25,0,.07-.04,.16-.13,.23-.19,.16-.28,.29-.41,.56-1.2,2.55-2.58,4.05-4.89,5.3-.1,.05-.17,.08-.24,.08-.08,0-.17-.05-.26-.14-.32-.29-.71-.47-1.12-.62,2.22-1.03,4.17-2.69,5.04-5h-4.09Zm.8-2.57c-.54,0-1.14,.01-1.64,.05-.12,0-.16-.07-.17-.26-.04-.25-.06-.78-.06-1.15,.73,.07,1.09,.08,1.97,.08h2.16c.78,0,1.42-.04,1.88-.06,.11,0,.14,.06,.14,.19,.02,.3,.02,.63,0,.94,0,.2-.04,.25-.22,.24-.4,0-.96-.02-1.69-.02h-2.38Z"/><path class="cls-1" d="M84.16,39.77c.43,0,.65-.01,.83-.11,.05-.04,.08-.05,.13-.05,.07,0,.13,.05,.2,.1,.28,.22,.55,.53,.78,.84,.04,.06,.06,.11,.06,.16,0,.07-.05,.16-.16,.24-.16,.13-.31,.31-.44,.53-.49,.84-.96,1.51-1.54,2.24,1.15,.85,2.22,1.79,3.32,2.9,.06,.06,.1,.12,.1,.17s-.02,.11-.08,.18c-.23,.28-.5,.56-.8,.82-.05,.05-.1,.07-.14,.07-.06,0-.11-.04-.17-.1-1.01-1.17-2.04-2.12-3.12-2.97-1.36,1.41-2.72,2.43-4.03,3.17-.11,.05-.19,.1-.28,.1-.07,0-.14-.04-.2-.11-.26-.32-.61-.56-1.01-.78,1.87-.95,2.99-1.8,4.22-3.06,.86-.9,1.52-1.75,2.25-3.01h-3.09c-.62,.01-1.25,.04-1.89,.08-.1,.01-.13-.07-.16-.2-.06-.25-.11-.83-.11-1.25,.65,.05,1.25,.05,2.03,.05h3.3Zm2.03-1.22c.06-.05,.11-.04,.18,.02,.37,.29,.8,.77,1.14,1.28,.05,.07,.05,.13-.04,.19l-.5,.37c-.08,.06-.14,.05-.2-.04-.36-.55-.74-1.01-1.21-1.39l.64-.44Zm1.07-.78c.07-.05,.11-.04,.18,.02,.44,.34,.88,.81,1.14,1.23,.05,.07,.06,.14-.04,.22l-.48,.37c-.1,.07-.16,.04-.2-.04-.32-.52-.71-.97-1.2-1.38l.6-.43Z"/><path class="cls-1" d="M100.19,40.31c.7,0,.84-.04,1-.11,.06-.04,.12-.06,.17-.06,.07,0,.14,.04,.2,.1,.32,.29,.6,.59,.86,.96,.06,.1,.1,.18,.1,.26,0,.1-.05,.18-.16,.25-.25,.18-.42,.29-.58,.46-1.03,1.14-2.15,2.25-3.23,3.21,.38,.38,.71,.75,1.05,1.2,.06,.07,.08,.12,.08,.18s-.04,.12-.11,.19c-.24,.24-.5,.49-.78,.71-.06,.04-.11,.06-.16,.06s-.1-.04-.14-.11c-1.16-1.5-2.37-2.67-3.85-3.73,.24-.23,.65-.61,.86-.8,.05-.04,.1-.06,.13-.06,.05,0,.1,.04,.17,.08,.62,.46,1.2,.88,1.7,1.34,1.01-.88,1.88-1.8,2.77-2.83l-5.05,.02c-.7,0-1.58,.02-2.23,.08-.16,0-.19-.07-.22-.22-.07-.42-.12-.84-.14-1.28,.82,.08,1.79,.08,2.61,.08h4.92Z"/><path class="cls-1" d="M113.71,40.19c.31-.01,.47-.06,.6-.14,.05-.04,.1-.05,.16-.05s.12,.02,.19,.07c.3,.19,.58,.42,.82,.65,.11,.1,.16,.19,.16,.28,0,.1-.06,.18-.14,.25-.17,.13-.29,.3-.4,.52-.8,1.63-1.57,2.79-2.38,3.71-1.03,1.16-2.46,2.33-3.65,2.99-.07,.05-.13,.06-.19,.06-.1,0-.18-.05-.28-.13-.3-.24-.67-.42-1.14-.55,1.87-1.03,2.82-1.79,3.99-3.06,.95-1.06,1.5-1.87,2.22-3.41l-2.9,.08c-.98,1.21-1.58,1.9-2.27,2.46-.08,.08-.17,.13-.25,.13-.06,0-.12-.02-.18-.07-.3-.22-.74-.43-1.15-.52,1.56-1.27,2.48-2.39,3.23-3.56,.4-.67,.58-1.04,.71-1.62,.68,.24,1.14,.44,1.4,.64,.08,.06,.12,.13,.12,.2s-.04,.14-.13,.2c-.12,.07-.2,.2-.3,.32-.13,.21-.25,.38-.4,.6l2.16-.05Z"/><path class="cls-1" d="M123.6,42.64c-.6,0-1.2,.01-1.8,.05-.11,0-.16-.07-.18-.23-.07-.3-.1-.74-.13-1.21,.68,.07,1.42,.1,2.21,.1h4.11c.2,0,.44-.02,.64-.13,.06-.05,.11-.07,.16-.07,.06,0,.12,.04,.18,.08,.29,.23,.61,.53,.8,.74,.08,.08,.12,.17,.12,.25,0,.07-.04,.16-.13,.23-.19,.16-.28,.29-.41,.56-1.2,2.55-2.58,4.05-4.89,5.3-.1,.05-.17,.08-.24,.08-.08,0-.17-.05-.26-.14-.32-.29-.71-.47-1.12-.62,2.22-1.03,4.17-2.69,5.04-5h-4.09Zm.8-2.57c-.54,0-1.14,.01-1.64,.05-.12,0-.16-.07-.17-.26-.04-.25-.06-.78-.06-1.15,.73,.07,1.09,.08,1.97,.08h2.16c.78,0,1.42-.04,1.88-.06,.11,0,.14,.06,.14,.19,.02,.3,.02,.63,0,.94,0,.2-.04,.25-.22,.24-.4,0-.96-.02-1.69-.02h-2.38Z"/><path class="cls-1" d="M140.47,39.57c.43,0,.65-.01,.83-.11,.05-.04,.08-.05,.13-.05,.07,0,.13,.05,.2,.1,.28,.21,.55,.53,.78,.84,.04,.06,.06,.11,.06,.16,0,.07-.05,.16-.16,.24-.16,.13-.31,.31-.44,.53-.49,.84-.96,1.51-1.54,2.24,1.15,.85,2.22,1.79,3.32,2.9,.06,.06,.1,.12,.1,.17s-.02,.11-.08,.18c-.23,.28-.5,.56-.8,.82-.05,.05-.1,.07-.14,.07-.06,0-.11-.04-.17-.1-1.01-1.17-2.04-2.12-3.12-2.97-1.35,1.42-2.72,2.44-4.03,3.17-.11,.05-.19,.1-.28,.1-.07,0-.14-.04-.2-.11-.26-.32-.61-.56-1.01-.78,1.87-.95,2.99-1.8,4.22-3.06,.86-.9,1.52-1.75,2.25-3.01h-3.09c-.62,.01-1.25,.04-1.89,.08-.1,.01-.13-.07-.16-.2-.06-.25-.11-.83-.11-1.25,.65,.05,1.25,.05,2.03,.05h3.3Z"/><path class="cls-1" d="M155.4,39.93c.35-.01,.5-.08,.66-.18,.08-.06,.14-.08,.2-.08s.13,.04,.22,.1c.26,.16,.6,.48,.82,.73,.07,.07,.1,.14,.1,.22s-.04,.14-.13,.23c-.12,.11-.24,.23-.36,.46-.52,1.02-1.08,2-1.76,2.9,.49,.4,.95,.82,1.3,1.21,.05,.05,.07,.11,.07,.17,0,.05-.02,.11-.07,.16-.17,.2-.54,.59-.74,.76-.05,.04-.1,.06-.14,.06-.04,0-.08-.02-.13-.07-.29-.34-.77-.82-1.16-1.16-1.22,1.32-2.46,2.25-3.83,3-.11,.06-.2,.11-.3,.11-.07,0-.14-.04-.23-.11-.38-.31-.72-.47-1.14-.61,1.86-.95,3.06-1.81,4.41-3.25-.46-.37-1-.74-1.73-1.13,.26-.29,.52-.6,.79-.85,.05-.05,.1-.08,.16-.08,.04,0,.07,.02,.12,.05,.43,.21,.96,.55,1.55,.96,.58-.74,1.02-1.52,1.4-2.37l-2.97,.06c-.98,1.26-1.76,2.09-2.57,2.7-.08,.06-.16,.11-.24,.11-.06,0-.13-.02-.19-.08-.3-.21-.61-.38-1.01-.55,1.68-1.33,2.58-2.44,3.39-3.77,.38-.65,.54-.97,.65-1.48,.41,.14,1.03,.35,1.4,.59,.1,.05,.13,.12,.13,.19,0,.08-.06,.18-.14,.24-.11,.07-.19,.17-.25,.25-.1,.17-.17,.29-.37,.6l2.11-.05Z"/><path class="cls-1" d="M164.56,44.2c-1.19,0-1.64,.14-1.76,.14-.14,0-.24-.07-.28-.25-.06-.28-.13-.84-.18-1.45,.78,.12,1.38,.14,2.59,.14h3.86c.91,0,1.83-.02,2.76-.04,.18-.01,.22,.02,.22,.17,.02,.36,.02,.77,0,1.13,0,.14-.05,.19-.22,.18-.9-.01-1.79-.02-2.67-.02h-4.32Z"/><path class="cls-1" d="M183.14,45.66c0,.83,.01,1.54,.04,2.49,.01,.16-.05,.2-.18,.2-.38,.02-.82,.02-1.2,0-.13,0-.18-.05-.17-.19,.01-.86,.05-1.64,.05-2.46v-2.79c-1.05,.89-2.34,1.8-3.3,2.3-.06,.04-.12,.05-.18,.05-.1,0-.17-.04-.25-.12-.28-.28-.67-.52-1.03-.71,1.66-.85,2.67-1.55,3.78-2.46,.95-.78,1.81-1.62,2.55-2.51,.41-.48,.56-.72,.76-1.24,.54,.3,1.07,.62,1.33,.84,.07,.05,.1,.12,.1,.18,0,.1-.07,.2-.17,.26-.2,.13-.4,.31-.72,.66-.47,.56-.91,1.03-1.4,1.51v3.97Z"/><path class="cls-1" d="M195.69,43.06c-.47,.67-.96,1.2-1.69,1.85-.61,.56-1.54,1.27-2.27,1.68-.11,.07-.19,.11-.28,.11-.07,0-.14-.04-.2-.12-.24-.29-.65-.58-.98-.71,1.22-.67,1.98-1.17,2.79-1.89,.71-.62,1.28-1.2,1.76-1.86h-2.1c-.62,.01-1.3,.04-1.92,.07-.11,.01-.16-.07-.17-.2-.05-.23-.07-.72-.1-1.16,.72,.05,1.43,.06,2.15,.06h2.85l-.05-1.07c-.02-.6-.08-1.03-.19-1.41,.65,.02,1.14,.06,1.51,.13,.12,.02,.16,.07,.16,.14,0,.05-.02,.11-.05,.18-.04,.14-.08,.34-.05,1.1l.04,.91h1.04c.84,0,1.44-.02,2.33-.06,.12,0,.18,.06,.18,.14,.01,.34,.01,.71,0,1.04,0,.1-.05,.17-.17,.17-.88-.04-1.56-.06-2.3-.06h-.97l.22,4.51c.04,.64-.18,1.03-.58,1.27-.41,.24-1.1,.42-1.66,.42-.23,0-.31-.05-.37-.2-.19-.44-.4-.72-.84-1.07,.9-.01,1.28-.04,1.69-.12,.28-.06,.37-.18,.35-.71l-.14-3.14Z"/><path class="cls-1" d="M206.44,39.49c.05-.06,.11-.1,.17-.1,.05,0,.1,.02,.16,.06,.61,.32,1.61,1.06,2.29,1.7,.07,.07,.11,.12,.11,.17s-.02,.1-.07,.16c-.18,.24-.58,.72-.74,.9-.06,.06-.1,.1-.14,.1s-.1-.04-.16-.1c-.72-.74-1.58-1.43-2.45-1.95,.26-.32,.61-.7,.84-.94Zm1.04,6.32c1.46-.76,2.24-1.26,3.45-2.23,1.46-1.19,2.27-1.96,3.29-3.26,.07,.6,.18,1.01,.34,1.4,.04,.08,.06,.16,.06,.23,0,.11-.06,.2-.19,.36-.64,.74-1.67,1.7-2.76,2.54-1,.78-2,1.45-3.62,2.35-.54,.32-.7,.44-.8,.55-.07,.07-.14,.12-.22,.12-.06,0-.13-.05-.2-.13-.3-.34-.67-.83-.96-1.33,.61-.17,.98-.28,1.62-.6Z"/></g></g></g></svg>