<svg xmlns="http://www.w3.org/2000/svg" width="244.422" height="80.046" viewBox="0 0 244.422 80.046">
  <g id="Group_1098" data-name="Group 1098" transform="translate(-562 -6183.655)">
    <g id="Group_671" data-name="Group 671" transform="translate(22.744 439.683)">
      <path id="Path_5172" data-name="Path 5172" d="M564.288,5784.516v-16.464h-17.3v16.464h-7.728v-39.7h7.728v15.96h17.3v-15.96h7.784v39.7Z" fill="#3c485a"/>
      <path id="Path_5173" data-name="Path 5173" d="M581.822,5784.516v-39.7h24.864v7.28H589.55v9.073h15.512v6.887H589.55v9.184h17.136v7.28Z" fill="#3c485a"/>
      <path id="Path_5174" data-name="Path 5174" d="M638.93,5775.444H622.8l-3.3,9.072h-8.177l15.232-39.7h8.96l15.12,39.7h-8.4Zm-13.552-7.056h10.976l-5.488-15.007Z" fill="#3c485a"/>
      <path id="Path_5175" data-name="Path 5175" d="M668.2,5752.148v32.368h-7.784v-32.368H647.873v-7.336h32.872v7.336Z" fill="#3c485a"/>
      <path id="Path_5176" data-name="Path 5176" d="M686.4,5784.516v-39.7h7.84v39.7Z" fill="#3c485a"/>
      <path id="Path_5177" data-name="Path 5177" d="M729.632,5784.516,711.6,5756.348v28.168h-7.729v-39.7H713.5l16.52,26.264v-26.264h7.728v39.7Z" fill="#3c485a"/>
      <path id="Path_5178" data-name="Path 5178" d="M777.238,5784.516l-.5-4.536c-1.792,2.689-5.713,5.376-11.7,5.376-10.7,0-19.824-7.84-19.824-20.664s9.576-20.72,20.328-20.72c10.416,0,16.184,6.1,18.144,12.208l-7.392,2.632c-1.008-3.527-4.312-7.616-10.752-7.616-5.992,0-12.488,4.089-12.488,13.5,0,8.96,5.88,13.608,12.544,13.608,7.336,0,10.192-4.927,10.639-7.728H763.686v-6.72H783.51v20.664Z" fill="#3c485a"/>
    </g>
    <g id="Group_1093" data-name="Group 1093" transform="translate(25.905 439.683)">
      <path id="Path_8225" data-name="Path 8225" d="M631.4,5816.68a9.418,9.418,0,0,1-2.194,3.97,30.608,30.608,0,0,1,4.274,2.1l-1.168,1.217a28.84,28.84,0,0,0-4.354-2.257,15.765,15.765,0,0,1-6.642,2.272,6.111,6.111,0,0,0-.866-1.36,15.911,15.911,0,0,0,5.875-1.569c-.9-.352-1.808-.672-2.673-.96l-.352.624-1.553-.416c.593-.96,1.313-2.273,2.017-3.618h-3.665v-1.423h4.4c.433-.866.849-1.713,1.2-2.466l1.552.337c-.319.671-.672,1.392-1.04,2.129h7.972v1.423Zm-9.4-2.3h-1.52v-3.537h5.81v-1.585h1.585v1.585h5.954v3.537h-1.585v-2.161H622Zm3.474,2.3c-.4.785-.8,1.537-1.185,2.242,1.089.319,2.257.7,3.426,1.152a7.1,7.1,0,0,0,1.984-3.394Z" fill="#42485a"/>
      <path id="Path_8226" data-name="Path 8226" d="M642.682,5815.24c-.241,2.161-.705,4.642-1.793,6.179l-1.377-.8a12.243,12.243,0,0,0,1.713-5.666Zm2.816-1.505v7.779c0,.752.16.881.977.881h2.592c.881,0,1.025-.545,1.153-3.17a3.969,3.969,0,0,0,1.377.641c-.193,3.01-.609,3.89-2.417,3.89h-2.866c-1.84,0-2.352-.5-2.352-2.242v-7.779Zm-.479-4.4a25.712,25.712,0,0,1,5.393,2.688l-.976,1.313a24.142,24.142,0,0,0-5.378-2.866Zm6.738,5.042a16.988,16.988,0,0,1,2.945,5.826l-1.488.721a17.142,17.142,0,0,0-2.8-5.86Z" fill="#42485a"/>
      <path id="Path_8227" data-name="Path 8227" d="M662.175,5820.938v1.233h-1.3V5810.5h4.258v10.435Zm0-9.123V5815h1.633v-3.185Zm1.633,7.811V5816.3h-1.633v3.329Zm10.051-1.409a7.866,7.866,0,0,1-2.032,3.49,11.215,11.215,0,0,0,3.346,1.04,6.044,6.044,0,0,0-.913,1.264,11.015,11.015,0,0,1-3.553-1.392,10.925,10.925,0,0,1-3.266,1.392,5.659,5.659,0,0,0-.816-1.135,10.716,10.716,0,0,0,2.945-1.057,9.573,9.573,0,0,1-1.585-1.729,8.006,8.006,0,0,1-3.056,3.858,3.867,3.867,0,0,0-.977-1.072c2.209-1.346,3.057-3.635,3.425-5.844h-2.064V5815.8h2.241c.031-.367.063-.7.095-1.04h-1.873v-1.184H666.9c-.144-.512-.432-1.28-.672-1.889l1.136-.3a15.682,15.682,0,0,1,.752,1.873l-.912.32h4.21a16.362,16.362,0,0,0,1.345-2.625l1.392.432c-.432.737-.928,1.537-1.392,2.193H674.5v1.184h-5.41c-.032.353-.064.689-.112,1.04h5.875v1.233H668.8c-.048.3-.113.577-.16.881h4.145l.257-.031Zm.5-7.748a52.269,52.269,0,0,1-8.5.8,4.937,4.937,0,0,0-.335-1.137,55.287,55.287,0,0,0,7.987-.767Zm-5.57,8.565a6.828,6.828,0,0,0,1.9,1.984,5.64,5.64,0,0,0,1.489-1.984Zm.64-5.555c-.064-.528-.24-1.425-.4-2.1l1.184-.208c.177.657.368,1.521.448,2.017Z" fill="#42485a"/>
      <path id="Path_8228" data-name="Path 8228" d="M688.922,5818.265a11.094,11.094,0,0,1-.193,1.1h5.443s-.017.384-.048.56c-.192,2.241-.417,3.217-.8,3.633a1.754,1.754,0,0,1-1.152.432,18.867,18.867,0,0,1-2.129-.016,3.057,3.057,0,0,0-.384-1.248c.8.08,1.569.1,1.857.1s.448-.016.576-.145c.208-.191.368-.8.513-2.129h-4.227c-.607,1.537-1.792,2.7-4.193,3.426a4.09,4.09,0,0,0-.817-1.152c3.058-.832,3.778-2.4,4.066-4.562h-3.1a10.1,10.1,0,0,1-2.033,5.458,5.158,5.158,0,0,0-1.248-.832c1.744-2.033,1.936-4.914,1.936-7.027v-3.553H694.3v3.569h-4.4v1.2h5.73v1.184Zm6.307-6.867h-13.35v-1.328h13.35Zm-10.773,4.482c0,.384,0,.785-.032,1.2h4v-1.2Zm0-2.449v1.313h8.387v-1.313Z" fill="#42485a"/>
    </g>
  </g>
</svg>
