<svg xmlns="http://www.w3.org/2000/svg" width="131.048" height="49.253" viewBox="0 0 131.048 49.253">
  <g id="Group_773" data-name="Group 773" transform="translate(-122.867 -5708.259)">
    <path id="Path_3560" data-name="Path 3560" d="M-65.458-21.519h2.944v8.892h11.191v-8.892h2.944V0h-2.944V-10.063H-62.514V0h-2.944Zm22.62,0h15.688v2.637H-40v6.533h11.88v2.49H-40v7.295H-26.93V0H-42.838Zm31.526,12.7-3.267-9.507L-18.05-8.818Zm-4.79-12.7h3.3L-5,0H-8.191l-2.183-6.445h-8.511L-21.214,0H-24.2Zm27.952,0v2.563H4.6V0H1.641V-18.955H-5.61v-2.563Zm4.075,0H18.87V0H15.926Zm8.426,0h3.442L38.663-4.087V-21.519h2.769V0H38.165L27.135-17.417V0H24.352Zm31.717-.557A11.054,11.054,0,0,1,61.313-20.9,7.645,7.645,0,0,1,65.238-15H62.353a5.241,5.241,0,0,0-2.183-3.435A7.512,7.512,0,0,0,56-19.512a6.542,6.542,0,0,0-5.032,2.241q-2.043,2.241-2.043,6.68A10.673,10.673,0,0,0,50.6-4.343q1.685,2.41,5.493,2.41a7.014,7.014,0,0,0,4.827-1.692Q62.836-5.317,62.88-9.1H56.142v-2.417H65.59V0H63.715l-.7-2.769A11.052,11.052,0,0,1,60.39-.513,9.828,9.828,0,0,1,55.512.571,9.5,9.5,0,0,1,48.935-1.9q-3-3.105-3-8.525a12.226,12.226,0,0,1,2.93-8.6A9.313,9.313,0,0,1,56.068-22.075Z" transform="translate(188.325 5730.334)" fill="#3c485a"/>
    <path id="Path_3561" data-name="Path 3561" d="M-18.252-.048a.319.319,0,0,0,.072-.168c0-.048-.024-.072-.084-.108a35.338,35.338,0,0,0-3.192-1.548,8.039,8.039,0,0,0,1.392-2.52h.78c1.068,0,1.416.024,1.5.024.12,0,.132-.012.132-.132v-.912c0-.12-.012-.132-.132-.132-.084,0-.432.024-1.5.024h-4.248l.312-.66a1.043,1.043,0,0,1,.312-.456.29.29,0,0,0,.144-.216c0-.072-.06-.132-.156-.156A12.569,12.569,0,0,0-24.2-7.32a6.152,6.152,0,0,1-.42,1.2c-.084.2-.18.408-.276.6h-1.788c-1.068,0-1.428-.024-1.5-.024-.12,0-.132.012-.132.132V-4.5c0,.12.012.132.132.132.072,0,.432-.024,1.5-.024h1.212c-.288.528-.588,1.02-.864,1.44a8.9,8.9,0,0,1-.588.744c-.084.108-.1.156.108.24l.732.3c.168.072.228.048.312-.048l.3-.4a17.871,17.871,0,0,1,1.764.576A10.844,10.844,0,0,1-28.284-.324a2.949,2.949,0,0,1,.456.816c.132.336.144.336.516.3A10.251,10.251,0,0,0-22.38-1,26.113,26.113,0,0,1-19.092.828a.166.166,0,0,0,.264-.06Zm-3.156-4.344a5.709,5.709,0,0,1-1.26,2.04c-.72-.264-1.464-.492-2.22-.7.276-.444.54-.888.78-1.344Zm-1.08-4.344V-8.88a2.243,2.243,0,0,1,.06-.72.677.677,0,0,0,.072-.24c0-.06-.06-.1-.192-.108-.408-.036-.852-.06-1.3-.072a4.781,4.781,0,0,1,.1,1.14v.144h-2.508c-1.128,0-1.524-.024-1.608-.024-.12,0-.132.012-.132.12,0,.072.024.288.024.708v.4c0,1.056-.024,1.224-.024,1.308,0,.12.012.132.132.132h1c.12,0,.132-.012.132-.132v-1.4h7.4v1.4c0,.12.012.132.132.132h1c.12,0,.132-.012.132-.132,0-.072-.024-.252-.024-1.308v-.492c0-.324.024-.54.024-.612,0-.108-.012-.12-.132-.12-.072,0-.48.024-1.608.024Zm13.908,3.3c0-.588.024-.744.084-.852A.387.387,0,0,0-8.424-6.5c0-.084-.072-.156-.264-.18A10.64,10.64,0,0,0-9.96-6.8a8.583,8.583,0,0,1,.072,1.368V-.828c0,.7.168.984.492,1.188A3.808,3.808,0,0,0-7.4.648a3.356,3.356,0,0,0,2.232-.5c.42-.336.6-.84.648-2.2.012-.312.012-.312-.3-.4a4.1,4.1,0,0,1-1-.384c0,1.392-.084,1.716-.348,1.944-.192.192-.516.252-1.14.252a2.662,2.662,0,0,1-1.044-.12C-8.508-.828-8.58-1-8.58-1.272Zm3.732-.144c-.156.06-.18.108-.12.216A14.343,14.343,0,0,1-3.42-1.584c.036.132.072.132.24.048l.912-.444c.156-.084.168-.108.132-.24a16.592,16.592,0,0,0-1.62-3.672C-3.816-6.012-3.84-6-4-5.94ZM-9.672-9.036a.4.4,0,0,0-.06.144c0,.036.024.048.1.072a14.493,14.493,0,0,1,3.276,1.7c.108.072.132.06.228-.108l.5-.864c.084-.144.084-.168-.036-.24a15.538,15.538,0,0,0-3.264-1.56c-.12-.036-.144-.024-.24.108Zm-2.064,3.4c-.18-.06-.192-.06-.216.084A12.575,12.575,0,0,1-13.068-1.7c-.048.1-.036.144.132.228l.876.4c.168.072.2.036.252-.072a15.085,15.085,0,0,0,1.1-4.08c.012-.12-.012-.144-.18-.192Zm20.328,2.2a6.57,6.57,0,0,0,.18-.7H11.4c1.152,0,1.548.024,1.62.024.12,0,.132-.012.132-.132v-.78c0-.108-.012-.12-.132-.12-.072,0-.468.024-1.62.024H8.928c.036-.2.048-.42.072-.648h2.208c1.128,0,1.524.024,1.6.024.12,0,.132-.012.132-.132v-.684c0-.132-.012-.144-.132-.144-.06,0-.348.024-1.08.024.2-.36.348-.66.516-1.008a.609.609,0,0,1,.192-.228.242.242,0,0,0,.108-.18.214.214,0,0,0-.156-.168,8.043,8.043,0,0,0-1.068-.276,3.985,3.985,0,0,1-.18.648,12.1,12.1,0,0,1-.576,1.212H8.136c-1.128,0-1.512-.024-1.584-.024-.12,0-.132.012-.132.144v.684c0,.12.012.132.132.132.06,0,.4-.012,1.284-.024-.012.228-.036.444-.06.648-1.02,0-1.4-.024-1.464-.024-.108,0-.12.012-.12.18v.72c0,.12.012.132.12.132.06,0,.408-.012,1.308-.024A6.288,6.288,0,0,1,4.944-.072,2.932,2.932,0,0,1,5.556.48c.132.168.192.24.264.24s.132-.06.264-.192A7.838,7.838,0,0,0,8-1.908a5.642,5.642,0,0,0,.96,1.092,8.934,8.934,0,0,1-2.28.924,2.285,2.285,0,0,1,.468.66c.084.156.108.216.2.216a1.284,1.284,0,0,0,.276-.06A7.775,7.775,0,0,0,9.9-.144,9.942,9.942,0,0,0,12.468.9a.816.816,0,0,0,.252.048c.132,0,.156-.06.24-.312a3.482,3.482,0,0,1,.384-.792,10.912,10.912,0,0,1-2.556-.72,7.655,7.655,0,0,0,1.1-1.368,1.046,1.046,0,0,1,.324-.372c.084-.048.12-.1.12-.156,0-.108-.048-.2-.264-.432-.252-.276-.372-.324-.468-.324a.4.4,0,0,0-.144.048.79.79,0,0,1-.252.036Zm2.232.84A5.81,5.81,0,0,1,9.816-1.44,4.7,4.7,0,0,1,8.7-2.6Zm-7-6.84c-.7,0-1.008-.024-1.092-.024-.108,0-.12.012-.12.132.012.324.012.936.012,2.508v3.744c0,2.208-.012,2.856-.012,2.928,0,.132.012.144.12.144h.84c.12,0,.132-.012.132-.144V-1.284h1.08v.18c0,.132.012.144.144.144h.792c.132,0,.144-.012.144-.132,0-.072-.024-.648-.024-2.544V-7.164c0-1.5.024-2.1.024-2.172,0-.12-.012-.132-.144-.132-.072,0-.3.024-.876.024Zm-.12,7.08V-4.932h1.08v2.568Zm1.08-5.988V-6H3.708V-8.352Zm7.1-1.668a2.323,2.323,0,0,1-.648.192,28.777,28.777,0,0,1-5.04.5,2.238,2.238,0,0,1,.3.612c.132.36.132.36.516.336a34.964,34.964,0,0,0,5-.588c.2-.036.384-.084.516-.1.192-.024.252-.072.252-.156a.227.227,0,0,0-.108-.18A7.322,7.322,0,0,0,11.892-10.02ZM10.068-7.044c.144-.048.168-.084.132-.2a6.387,6.387,0,0,0-.48-1.116c-.06-.108-.084-.132-.264-.072l-.552.18c-.18.048-.216.084-.18.168a7.663,7.663,0,0,1,.444,1.176c.036.12.06.144.228.084ZM6.78-8.052c-.144.06-.144.084-.084.18A4.88,4.88,0,0,1,7.212-6.84c.048.132.084.132.228.072l.66-.276c.156-.06.168-.084.12-.2a5.555,5.555,0,0,0-.552-1.008c-.072-.1-.1-.108-.252-.048Zm17.4,3.78V-5.16h1.584c1.164,0,1.572.024,1.644.024.132,0,.144-.012.144-.144,0-.072-.024-.264-.024-.8V-7c0-.54.024-.732.024-.8,0-.132-.012-.144-.144-.144-.072,0-.48.024-1.644.024H20.6c-1.164,0-1.584-.024-1.656-.024-.132,0-.144.012-.144.144,0,.072.024.564.024,1.728A19.433,19.433,0,0,1,18.576-2.7,5.818,5.818,0,0,1,17.364-.108a2.9,2.9,0,0,1,.672.66c.12.144.18.228.24.228s.12-.072.216-.216A7.627,7.627,0,0,0,19.7-2.124c.06-.3.132-.684.18-1.092.24,0,.66-.012,1.428-.012h.528a4.2,4.2,0,0,1-.552,1.7A4.329,4.329,0,0,1,19.128.108,2.384,2.384,0,0,1,19.7.72c.12.192.168.276.252.276a.861.861,0,0,0,.252-.1A4.847,4.847,0,0,0,22.272-.864a3.321,3.321,0,0,0,.348-.648h3.132a2.731,2.731,0,0,1-.228,1.068c-.1.168-.252.216-.552.216a8.488,8.488,0,0,1-1.272-.1,2.908,2.908,0,0,1,.252.732c.072.384.1.408.432.42s.576.024.8.024A1.5,1.5,0,0,0,26.556.264,4.061,4.061,0,0,0,27-1.524l.072-.84c.012-.12-.036-.156-.144-.156-.084,0-.36.012-1.26.012H22.932a6,6,0,0,0,.12-.72h3.384c1.176,0,1.584.024,1.656.024.12,0,.132-.012.132-.132v-.816c0-.132-.012-.144-.132-.144-.072,0-.48.024-1.656.024Zm2.136-1.884H20.052v-.78h6.264Zm-3.36,1v.888H21.312c-.648,0-1.068,0-1.32-.012.024-.3.048-.6.048-.876Zm3.732-3.4c1.092,0,1.464.024,1.524.024.132,0,.144-.012.144-.132v-.828c0-.132-.012-.144-.144-.144-.06,0-.432.024-1.524.024H19.644c-1.092,0-1.476-.024-1.548-.024-.12,0-.132.012-.132.144v.828c0,.12.012.132.132.132.072,0,.456-.024,1.548-.024Z" transform="translate(186.785 5756.517)" fill="#42485a"/>
  </g>
</svg>
