<?xml version="1.0" encoding="UTF-8"?><svg id="Layer_2" xmlns="http://www.w3.org/2000/svg" viewBox="0 0 185.64 48.41"><defs><style>.cls-1{fill:#3c485a;}</style></defs><g id="Sphere"><g><g><path class="cls-1" d="M12.01,3.81c.79,0,1.19-.02,1.52-.2,.09-.07,.15-.09,.24-.09,.13,0,.24,.09,.37,.18,.51,.4,1.01,.97,1.43,1.54,.07,.11,.11,.2,.11,.29,0,.13-.09,.29-.29,.44-.29,.24-.57,.57-.81,.97-.9,1.54-1.76,2.77-2.82,4.11,2.11,1.56,4.07,3.28,6.09,5.33,.11,.11,.18,.22,.18,.31s-.04,.2-.15,.33c-.42,.51-.92,1.03-1.47,1.5-.09,.09-.18,.13-.26,.13-.11,0-.2-.07-.31-.18-1.85-2.16-3.74-3.89-5.72-5.46-2.49,2.6-4.99,4.47-7.39,5.81-.2,.09-.35,.18-.51,.18-.13,0-.26-.07-.37-.2-.48-.59-1.12-1.03-1.85-1.43,3.43-1.74,5.48-3.3,7.75-5.61,1.58-1.65,2.79-3.21,4.14-5.52l-5.68,.02c-1.14,0-2.29,.04-3.48,.13-.18,.02-.24-.13-.29-.37-.11-.46-.2-1.52-.2-2.29,1.19,.09,2.29,.09,3.72,.09h6.05Z"/><path class="cls-1" d="M27.83,6.58c-1.43,0-2.68,.07-3.63,.11-.29,.02-.37-.13-.42-.44-.07-.44-.15-1.58-.2-2.22,.99,.11,2.16,.15,4.22,.15h7.86c.66,0,.9-.04,1.21-.22,.13-.09,.26-.13,.37-.13,.13,0,.26,.04,.37,.15,.57,.46,1.12,.99,1.5,1.52,.11,.15,.18,.29,.18,.44,0,.13-.07,.26-.22,.42-.2,.2-.31,.42-.51,.86-1.08,2.6-2.42,5.02-4.27,7.15-1.89,2.16-4.03,3.98-6.25,5.24-.2,.13-.4,.2-.59,.2-.18,0-.37-.07-.55-.24-.51-.48-1.23-.88-2.05-1.21,3.21-1.63,5.17-3.15,7.2-5.5,1.72-1.96,2.84-3.83,3.72-6.27h-7.94Zm15.2-4.22c0,1.32-1.06,2.35-2.38,2.35s-2.38-1.03-2.38-2.35,1.06-2.35,2.38-2.35,2.38,1.03,2.38,2.35Zm-3.67,0c0,.75,.55,1.3,1.3,1.3s1.3-.55,1.3-1.3-.55-1.3-1.3-1.3-1.3,.55-1.3,1.3Z"/><path class="cls-1" d="M51.48,9.44c-1.1,0-2.2,.02-3.3,.09-.2,0-.29-.13-.33-.42-.13-.55-.18-1.36-.24-2.22,1.25,.13,2.6,.18,4.05,.18h7.55c.37,0,.81-.04,1.17-.24,.11-.09,.2-.13,.29-.13,.11,0,.22,.07,.33,.15,.53,.42,1.12,.97,1.47,1.36,.15,.15,.22,.31,.22,.46,0,.13-.07,.29-.24,.42-.35,.29-.51,.53-.75,1.03-2.2,4.69-4.73,7.44-8.98,9.73-.18,.09-.31,.15-.44,.15-.15,0-.31-.09-.48-.26-.59-.53-1.3-.86-2.05-1.14,4.07-1.89,7.66-4.93,9.24-9.17l-7.5,.02Zm1.47-4.73c-.99,0-2.09,.02-3.01,.09-.22,0-.29-.13-.31-.48-.07-.46-.11-1.43-.11-2.11,1.34,.13,2,.15,3.61,.15h3.96c1.43,0,2.6-.07,3.45-.11,.2,0,.26,.11,.26,.35,.04,.55,.04,1.17,0,1.72,0,.38-.07,.46-.4,.44-.73,0-1.76-.04-3.1-.04h-4.36Z"/><path class="cls-1" d="M70.16,7.86c.24-.11,.4-.09,.57,.15,.77,.97,1.47,2.09,1.89,3.26,.04,.15,.09,.24,.09,.33,0,.13-.09,.2-.26,.31-.53,.31-.9,.48-1.41,.68-.31,.11-.44,0-.55-.31-.51-1.28-1.19-2.49-2.07-3.54,.75-.42,1.28-.66,1.74-.88Zm12.08,.29c.18,.13,.29,.24,.29,.37s-.07,.24-.24,.4c-.33,.29-.48,.73-.66,1.12-.95,2.25-2.09,4.25-3.32,5.85-1.45,1.85-2.66,3.01-4.53,4.25-.18,.13-.35,.24-.53,.24-.11,0-.24-.04-.35-.15-.55-.44-1.06-.68-1.87-.92,2.64-1.74,3.96-2.86,5.28-4.58,1.1-1.43,2.33-3.59,2.97-5.3,.29-.81,.42-1.3,.51-2.33,.92,.29,1.92,.68,2.46,1.06Zm-7.64-1.34c.24-.11,.4-.09,.57,.18,.59,.77,1.34,2.16,1.69,3.21,.11,.33,.07,.44-.22,.59-.42,.24-.9,.46-1.52,.68-.24,.09-.33-.02-.44-.33-.51-1.3-1.01-2.35-1.85-3.52,.88-.42,1.39-.66,1.76-.81Z"/><path class="cls-1" d="M89.43,7.66c.11-.15,.22-.26,.42-.22,1.65,.55,2.97,1.25,4.22,2.16,.15,.11,.24,.2,.24,.33,0,.07-.04,.15-.09,.24-.24,.59-.62,1.17-.97,1.67-.11,.13-.2,.22-.29,.22s-.15-.04-.26-.13c-1.41-1.03-2.84-1.76-4.44-2.4,.55-.88,.9-1.52,1.17-1.87Zm3.56,8.16c2.09-1.1,3.89-2.13,6.03-3.81,1.76-1.34,4.12-3.45,6.34-6.14,.13,.97,.31,1.52,.64,2.46,.07,.15,.11,.29,.11,.42,0,.18-.07,.33-.24,.51-2.05,2.2-3.43,3.41-5.59,5.08-1.92,1.45-3.96,2.71-6.58,4.14-.53,.29-1.06,.53-1.28,.75-.13,.13-.24,.18-.35,.18-.15,0-.31-.09-.44-.26-.46-.46-1.06-1.32-1.63-2.24,.92-.18,1.69-.42,2.99-1.08Zm-.9-13.22c.15-.26,.29-.31,.55-.18,1.41,.57,2.93,1.39,4.14,2.44,.13,.09,.18,.2,.18,.29s-.02,.18-.09,.29c-.31,.55-.75,1.25-1.12,1.65-.07,.11-.15,.13-.22,.13-.11,0-.22-.07-.33-.15-1.14-.95-2.86-2.07-4.27-2.71,.37-.57,.79-1.19,1.17-1.76Z"/><path class="cls-1" d="M122.65,16.26c.88,0,1.85-.02,2.68-.02,.37-.02,.46,.04,.48,.4,.02,.42,.02,.97,0,1.39-.02,.42-.09,.44-.42,.44-.99,0-2.05-.02-3.06-.02h-8.1c-.9,0-1.76,0-2.84,.04-.24,0-.33-.11-.37-.44-.09-.46-.11-1.17-.11-1.85,1.25,.09,2.07,.09,3.17,.09h5.1l.75-5.35h-3.54c-.86,0-1.85,.04-2.42,.07-.26,.02-.35-.04-.4-.42-.07-.46-.11-1.17-.15-1.89,1.47,.07,2.13,.11,3.06,.11h3.04c.79,0,.99-.07,1.3-.2,.09-.07,.18-.09,.24-.09,.11,0,.22,.07,.33,.13,.4,.29,.99,.77,1.34,1.21,.13,.13,.2,.26,.2,.4s-.07,.26-.2,.4c-.29,.31-.35,.55-.44,1.1l-.68,4.51h1.03Z"/><path class="cls-1" d="M132.46,14.24c.11-.2,.24-.33,.62-.26,3.34,.51,7.02,1.72,10.54,3.43,.24,.11,.37,.29,.22,.59-.26,.64-.57,1.25-.88,1.8-.11,.18-.2,.26-.33,.26-.09,0-.2-.04-.31-.11-3.56-1.8-7.06-2.93-10.87-3.65,.29-.68,.73-1.56,1.01-2.07Zm.29-6.56c.11-.24,.24-.31,.57-.22,2.33,.51,4.86,1.28,6.71,2.13,.35,.15,.4,.31,.29,.64-.13,.42-.51,1.28-.73,1.69-.11,.2-.2,.29-.31,.29-.09,0-.18-.02-.29-.09-2.35-1.12-4.69-1.8-7.2-2.35,.35-.88,.73-1.69,.95-2.09Zm1.45-5.74c.18-.35,.29-.35,.59-.29,2.33,.44,5.65,1.34,7.83,2.31,.35,.15,.4,.26,.26,.55-.15,.53-.55,1.43-.77,1.92-.11,.26-.31,.26-.53,.15-2.57-1.17-5.5-2.02-8.32-2.53,.26-.64,.75-1.76,.92-2.11Z"/><path class="cls-1" d="M161.31,3.81c.79,0,1.19-.02,1.52-.2,.09-.07,.15-.09,.24-.09,.13,0,.24,.09,.37,.18,.51,.4,1.01,.97,1.43,1.54,.07,.11,.11,.2,.11,.29,0,.13-.09,.29-.29,.44-.29,.24-.57,.57-.81,.97-.9,1.54-1.76,2.77-2.82,4.11,2.11,1.56,4.07,3.28,6.09,5.33,.11,.11,.18,.22,.18,.31s-.04,.2-.15,.33c-.42,.51-.92,1.03-1.47,1.5-.09,.09-.18,.13-.26,.13-.11,0-.2-.07-.31-.18-1.85-2.16-3.74-3.89-5.72-5.46-2.49,2.6-4.99,4.47-7.39,5.81-.2,.09-.35,.18-.51,.18-.13,0-.26-.07-.38-.2-.48-.59-1.12-1.03-1.85-1.43,3.43-1.74,5.48-3.3,7.75-5.61,1.58-1.65,2.79-3.21,4.14-5.52l-5.68,.02c-1.14,0-2.29,.04-3.48,.13-.18,.02-.24-.13-.29-.37-.11-.46-.2-1.52-.2-2.29,1.19,.09,2.29,.09,3.72,.09h6.05Z"/><path class="cls-1" d="M178.36,7.79c2.68,.84,4.82,1.69,7,2.99,.24,.13,.35,.29,.24,.57-.29,.73-.64,1.41-.95,1.92-.09,.15-.18,.24-.29,.24-.07,0-.15-.02-.24-.11-2.02-1.3-4-2.27-5.79-2.82v4.86c0,1.43,.04,2.73,.09,4.31,.02,.26-.09,.33-.4,.33-.64,.04-1.32,.04-1.96,0-.31,0-.42-.07-.42-.33,.07-1.63,.09-2.93,.09-4.33V4.6c0-1.65-.07-2.38-.22-3.26,1.01,.07,2.11,.18,2.75,.35,.31,.07,.42,.2,.42,.37,0,.13-.07,.31-.18,.51-.15,.29-.15,.84-.15,2.07v3.15Z"/></g><g><path class="cls-1" d="M72.7,41.3c-.11-.6-.58-1.26-1.6-1.27-.82,0-1.47,.54-1.47,1.26,0,.57,.37,.98,1.02,1.12l1.04,.23c1.14,.25,1.82,.96,1.82,1.96,0,1.09-.93,2.05-2.41,2.05-1.64,0-2.47-1.07-2.6-2.11l.79-.25c.08,.84,.69,1.6,1.81,1.6,1.02,0,1.57-.54,1.57-1.22,0-.58-.4-1.03-1.15-1.2l-1.04-.23c-.98-.22-1.69-.86-1.69-1.9,0-1.11,1.02-2.06,2.3-2.06,1.53,0,2.18,.93,2.36,1.75l-.75,.27Z"/><path class="cls-1" d="M75.12,48.41v-6.69h.78v.8c.25-.49,.81-.94,1.66-.94,1.41,0,2.18,1.1,2.18,2.53s-.82,2.54-2.2,2.54c-.82,0-1.37-.43-1.62-.88v2.64h-.8Zm3.82-4.3c0-1.06-.59-1.81-1.52-1.81s-1.52,.75-1.52,1.81,.6,1.82,1.52,1.82,1.52-.76,1.52-1.82Z"/><path class="cls-1" d="M81.28,46.51v-7.23h.8v7.23h-.8Z"/><path class="cls-1" d="M85.04,43.81l1.29-.19c.35-.05,.43-.2,.43-.41,0-.54-.36-.95-1.11-.95-.7,0-1.12,.42-1.19,1.03l-.76-.18c.1-.91,.9-1.53,1.93-1.53,1.36,0,1.93,.78,1.93,1.71v2.42c0,.4,.03,.65,.06,.8h-.78c-.02-.11-.06-.35-.06-.72-.21,.39-.73,.86-1.59,.86-.99,0-1.58-.68-1.58-1.41,0-.84,.59-1.31,1.43-1.43Zm1.72,.68v-.32l-1.56,.23c-.46,.07-.79,.33-.79,.8,0,.39,.33,.77,.88,.77,.83,0,1.47-.46,1.47-1.48Z"/><path class="cls-1" d="M89.7,45c.07,.55,.48,.97,1.2,.97,.57,0,.93-.32,.93-.73,0-.36-.29-.6-.73-.7l-.78-.18c-.73-.17-1.19-.64-1.19-1.33,0-.8,.76-1.45,1.67-1.45,1.24,0,1.67,.79,1.78,1.28l-.71,.26c-.06-.33-.31-.86-1.07-.86-.5,0-.89,.32-.89,.72,0,.34,.21,.55,.63,.65l.78,.18c.84,.19,1.3,.68,1.3,1.39s-.59,1.45-1.73,1.45c-1.26,0-1.83-.8-1.91-1.4l.72-.25Z"/><path class="cls-1" d="M94.95,46.51h-.8v-7.23h.8v3.08c.31-.5,.86-.78,1.48-.78,1.15,0,1.71,.82,1.71,1.86v3.07h-.8v-2.95c0-.7-.32-1.26-1.19-1.26-.76,0-1.2,.61-1.2,1.35v2.86Z"/><path class="cls-1" d="M103.47,42.4c.27-.5,.85-.82,1.47-.82,.66,0,1.23,.35,1.47,.98,.34-.68,.94-.98,1.62-.98,.87,0,1.65,.6,1.65,1.8v3.13h-.8v-3.04c0-.66-.35-1.17-1.1-1.17-.71,0-1.19,.58-1.19,1.3v2.91h-.8v-3.04c0-.66-.35-1.17-1.11-1.17-.72,0-1.19,.56-1.19,1.31v2.9h-.8v-4.79h.78v.68Z"/><path class="cls-1" d="M111.85,39.23c.33,0,.6,.27,.6,.6s-.27,.6-.6,.6-.6-.27-.6-.6,.27-.6,.6-.6Zm-.4,7.28v-4.79h.8v4.79h-.8Z"/><path class="cls-1" d="M114.41,45c.07,.55,.48,.97,1.2,.97,.57,0,.93-.32,.93-.73,0-.36-.29-.6-.73-.7l-.78-.18c-.73-.17-1.19-.64-1.19-1.33,0-.8,.76-1.45,1.67-1.45,1.24,0,1.67,.79,1.78,1.28l-.71,.26c-.06-.33-.31-.86-1.07-.86-.5,0-.89,.32-.89,.72,0,.34,.21,.55,.63,.65l.78,.18c.84,.19,1.3,.68,1.3,1.39s-.59,1.45-1.73,1.45c-1.26,0-1.83-.8-1.91-1.4l.72-.25Z"/><path class="cls-1" d="M120.13,41.72h1.13v.72h-1.13v2.65c0,.5,.22,.75,.73,.75,.14,0,.32-.03,.4-.05v.68c-.09,.03-.32,.09-.63,.09-.79,0-1.3-.49-1.3-1.36v-2.76h-.96v-.72h.31c.49,0,.7-.28,.7-.73v-.79h.75v1.52Z"/></g></g></g></svg>