<?xml version="1.0" encoding="UTF-8"?><svg id="Layer_2" xmlns="http://www.w3.org/2000/svg" viewBox="0 0 85.21 21.5"><defs><style>.cls-1{fill:#cf000e;}</style></defs><g id="_イヤー_1"><g><path class="cls-1" d="M21.46,0c-1.31,0-2.37,1.06-2.37,2.37s1.06,2.37,2.37,2.37,2.37-1.06,2.37-2.37-1.06-2.37-2.37-2.37"/><path class="cls-1" d="M23.27,5.79h-3.61c-.26,0-.48,.21-.48,.48v14.29c0,.26,.21,.48,.48,.48h3.61c.26,0,.48-.21,.48-.48V6.27c0-.26-.21-.48-.48-.48"/><path class="cls-1" d="M35.74,5.42c-3.39,0-4.38,1.41-4.97,2v-1.14c0-.27-.21-.48-.47-.48h-3.54c-.26,0-.47,.22-.47,.48v14.29c0,.27,.21,.48,.47,.48h3.62c.26,0,.47-.22,.47-.48V12.48c0-2.07,1.25-3.61,3.35-3.61,2.24,0,3.34,1.58,3.34,3.61v8.08c0,.27,.21,.48,.47,.48h3.62c.26,0,.47-.22,.47-.48V11.36c0-4.46-3.11-5.94-6.37-5.94"/><path class="cls-1" d="M54.04,5.42c-3.39,0-4.38,1.41-4.97,2v-1.14c0-.27-.21-.48-.47-.48h-3.54c-.26,0-.47,.22-.47,.48v14.29c0,.27,.21,.48,.47,.48h3.62c.26,0,.47-.22,.47-.48V12.48c0-2.07,1.25-3.61,3.35-3.61,2.24,0,3.34,1.58,3.34,3.61v8.08c0,.27,.21,.48,.47,.48h3.62c.26,0,.47-.22,.47-.48V11.36c0-4.46-3.11-5.94-6.37-5.94"/><path class="cls-1" d="M82.84,4.74c1.31,0,2.37-1.06,2.37-2.37S84.15,0,82.84,0s-2.37,1.06-2.37,2.37,1.06,2.37,2.37,2.37"/><path class="cls-1" d="M84.64,5.79h-3.61c-.26,0-.48,.21-.48,.48v14.29c0,.26,.21,.48,.48,.48h3.61c.26,0,.48-.21,.48-.48V6.27c0-.26-.21-.48-.48-.48"/><path class="cls-1" d="M7.31,10.04h-2.73V4.19h2.73c2.22,0,4.07,.38,4.07,2.93s-1.85,2.93-4.07,2.93m5.05,2.76c.96-.33,3.6-1.22,3.6-5.68S13.01,1.01,7.82,1.01H.48c-.26,0-.48,.21-.48,.46V20.58c0,.26,.21,.46,.48,.46h3.62c.26,0,.48-.21,.48-.46v-7.36h2.83l5.03,7.25c.23,.36,.64,.57,1.07,.57h3.86c.3,0,.48-.32,.32-.57l-5.33-7.67Z"/><path class="cls-1" d="M73.7,15.02c0,2.21-1.42,3.51-3.83,3.58-1.79,.05-3.3-.71-3.34-1.89-.09-2.68,5.47-2.56,6.72-2.48,.43,.03,.46,.03,.46,.25v.55Zm-6.25-9.18c-3.1,.85-4.25,2.78-4.66,4-.08,.22,.16,.41,.38,.41l4.07-.02c.15,0,.31-.05,.4-.16,.86-1.1,2.14-1.32,3.33-1.25,2.94,.17,2.7,2.55,2.7,2.75-9.86-.9-12.33,3.5-11.08,6.74,1.44,3.72,8.65,4.15,11.01,1.56,.29,.82,.35,1.19,1,1.19h3.06c.27,0,.49-.22,.49-.48V11.55c0-6.51-7.3-6.64-10.69-5.71"/></g></g></svg>